<svg id="Layer_1" data-name="Layer 1" xmlns="http://www.w3.org/2000/svg" xmlns:xlink="http://www.w3.org/1999/xlink" viewBox="0 0 600 270"><defs><style>.cls-1,.cls-11,.cls-18,.cls-19,.cls-2{fill:none;}.cls-10,.cls-14,.cls-16,.cls-18,.cls-19,.cls-2,.cls-21,.cls-22,.cls-6{stroke:#263238;}.cls-10,.cls-11,.cls-14,.cls-16,.cls-18,.cls-19,.cls-2,.cls-21,.cls-22,.cls-6{stroke-linecap:round;stroke-linejoin:round;}.cls-3,.cls-6{fill:#fff;}.cls-4{clip-path:url(#clip-path);}.cls-14,.cls-21,.cls-5{fill:#92e3a9;}.cls-16,.cls-22,.cls-7{fill:#858585;}.cls-8{clip-path:url(#clip-path-2);}.cls-9{opacity:0.2;isolation:isolate;}.cls-10,.cls-17{fill:#263238;}.cls-11{stroke:#7f7f7f;}.cls-11,.cls-19,.cls-21,.cls-22{stroke-width:0.75px;}.cls-12{clip-path:url(#clip-path-3);}.cls-13{clip-path:url(#clip-path-4);}.cls-15{clip-path:url(#clip-path-5);}.cls-18{stroke-width:4px;}.cls-20{clip-path:url(#clip-path-6);}</style><clipPath id="clip-path"><path class="cls-1" d="M364.4,259.92h-9.83a9.07,9.07,0,0,1-9-8.3l-2-19.64h31.77l-1.88,19.64A9.07,9.07,0,0,1,364.4,259.92Z"/></clipPath><clipPath id="clip-path-2"><path class="cls-1" d="M409.38,171.24s-11.6,31.94-7.92,45.62,22.87,9.46,27.59,1.08,13.84-38.75,13.84-38.75L433.43,161l-21,4.73-2,2.86Z"/></clipPath><clipPath id="clip-path-3"><path class="cls-1" d="M561,125.07A970.92,970.92,0,0,0,546.91,267H436.64s12.5-65.84-1.53-151.71C435.13,115.28,492,74.81,561,125.07Z"/></clipPath><clipPath id="clip-path-4"><path class="cls-1" d="M577.39,178.85s1.7,45.05-14.2,60.66c0,0-19.11,4.37-75-38.09,0,0-5.55.48-8.43-2.92,0,0-9,3.16-13.72-1.93,0,0-6.05.23-7.41-5.37,0,0-3.83.49-5.18-1.21,0,0-4.6.24-5.25-2.18s4.54-4.38,4.54-4.38.1-5.57,2.41-7.27a18.25,18.25,0,0,1,4.44-2.43s-15.27-9.19-13.4-14.31,4.42,3.88,18.94,10.19c0,0,7.29.24,8.69,2.91l17.66,14.8s5.17,1.38,6.86,1.94c11,3.67,26.38,10.2,44.66,11.41l3.54-29.12S568.74,166.23,577.39,178.85Z"/></clipPath><clipPath id="clip-path-5"><path class="cls-1" d="M517.09,104.91s-8.55-13.28-6.18-36.22l-35,2.3s-.31,30.33-11.49,31.94l9.13,11.68,8.05.6,13.92.06,20.29-6.55Z"/></clipPath><clipPath id="clip-path-6"><path class="cls-1" d="M418.48,171.24s-17.56,32.67-17,45.62,8.67,17.28,8.67,17.28,21.95-1.09,22.31-27.11l3-25.29s7.67-2.6,10.73-8c0,0,7.66-2.6,10.07-7s3.83-10,1.42-10.92-4.1,7-6.2,8.55c-1.4,1-3.65,2.3-5,3.07a1.16,1.16,0,0,1-1.56-.51s0,0,0-.08h0a1,1,0,0,1,.32-1.28,23.53,23.53,0,0,0,4.8-4.6c2.3-3.06,8.8-12,5.57-14s-8.53,7.75-10.63,9.37c-1.28,1-3.06,2.17-4.19,2.9a1.92,1.92,0,0,1-2.3-.26l-.13-.11a2,2,0,0,1-.49-2.3,33.52,33.52,0,0,1,2-3.72c1.39-1.84,3.25-3.62,6.13-6.94s5.65-5.86,3.63-7.44c-4-3.06-14.27,8.56-15.63,10a15.18,15.18,0,0,0-2.13,3.49,1.1,1.1,0,0,1-1.49.49l0,0h0a1.28,1.28,0,0,1-.66-1,27.37,27.37,0,0,1-.05-6.06c.45-1.81,1.74-3.07,3.6-6.41,1.64-2.9,3.54-6,2.18-7.24-2.92-2.73-8.72,5.64-8.72,5.64l-4.16,7.5s1.74-3.83-.39-5.65-2,2.37-3.84,4.55-.07,6.74-.57,10a43.54,43.54,0,0,0-.51,5.82Z"/></clipPath></defs><g id="freepik--Table--inject-788"><g id="freepik--freepik--Table--inject-4--inject-788"><line class="cls-2" x1="273.08" y1="267.01" x2="594.89" y2="267.01"/></g></g><g id="freepik--Coffee--inject-788"><path class="cls-3" d="M364.4,259.92h-9.83a9.07,9.07,0,0,1-9-8.3l-2-19.64h31.77l-1.88,19.64A9.07,9.07,0,0,1,364.4,259.92Z"/><g class="cls-4"><path class="cls-5" d="M374.22,243.31l.11-.14c.05-.11.15-.34.18-.44a3.32,3.32,0,0,0,.08-.41c0-.14,0-.06,0-.09.06-.54.11-1.09.18-1.62H344.65a4.21,4.21,0,0,1,.27,2.73v0h0v1.06q.13.42,0,.09v0a4.3,4.3,0,0,1,.29,1.37h28.61A3.25,3.25,0,0,1,374.22,243.31Z"/></g><path class="cls-2" d="M364.4,259.92h-9.83a9.07,9.07,0,0,1-9-8.3l-2-19.64h31.77l-1.88,19.64A9.07,9.07,0,0,1,364.4,259.92Z"/><path class="cls-6" d="M364.4,259.92h-9.83a9,9,0,0,1-4.6-1.27l-.27,3.14h19.56l-.26-3.14A9,9,0,0,1,364.4,259.92Z"/><path class="cls-6" d="M378.82,234.82a4.22,4.22,0,0,0-3.89,1.38l-.39,4c1.08-1.8,2.38-3.07,3.73-2.72,2.89.69,3.91,4.36,3,8.19s-4,6.34-6.9,5.65l-.92-.21-.05.55a9.6,9.6,0,0,1-.3,1.67l.37.08c4.49,1.08,9.13-2.19,10.36-7.31S383.33,235.91,378.82,234.82Z"/><path class="cls-6" d="M359.54,257.4c-3.19.49-6.73,3.11-6.34,5.64s4.54,4,7.74,3.5c2.57-.4,3.06-2.57,4.46-3.93,4.09-4,19.92-3.9,25.78-3.73a1.86,1.86,0,0,0,1.9-1.8c0-.11,0-.22,0-.33h0a1.86,1.86,0,0,0-2-1.54c-4.88.56-18.51,2.21-24.89,3.83C364.26,259.48,362.12,257,359.54,257.4Z"/><path class="cls-6" d="M370.14,267.35H347.5a27.07,27.07,0,0,1-10.06-1.94l-7.34-2.93a.82.82,0,0,1-.45-1.07.8.8,0,0,1,.75-.51h56.85a.81.81,0,0,1,.81.82.83.83,0,0,1-.51.76l-7.34,2.93A27.16,27.16,0,0,1,370.14,267.35Z"/><path class="cls-2" d="M360,192a8.48,8.48,0,0,0-2.67-2.76"/><path class="cls-2" d="M359.13,206.2c2.42-4.84,2.69-8.48,2.11-11.13"/><path class="cls-2" d="M355.22,220.6c-.6-3.28-.13-7.41,2.77-12.33"/><path class="cls-2" d="M361.1,229.82a15.39,15.39,0,0,1-5.31-7.09"/><path class="cls-2" d="M368.41,200.64a6.7,6.7,0,0,0-2.35-2.66"/><path class="cls-2" d="M367.76,210.62c1.53-3.34,1.75-5.92,1.38-7.85"/><path class="cls-2" d="M369,229.82s-8.89-5.94-2.44-16.91"/><path class="cls-2" d="M352.35,209.81a6.33,6.33,0,0,0-.29-2"/><path class="cls-2" d="M350.19,216.5a16,16,0,0,0,1.93-4.59"/><path class="cls-2" d="M352.11,229.82a9.19,9.19,0,0,1-2.87-11.45"/></g><g id="freepik--Character--inject-788"><path class="cls-7" d="M409.38,171.24s-11.6,31.94-7.92,45.62,22.87,9.46,27.59,1.08,13.84-38.75,13.84-38.75L433.43,161l-21,4.73-2,2.86Z"/><g class="cls-8"><path class="cls-9" d="M431.32,216.39a4.09,4.09,0,0,1,.69-2.15,2.35,2.35,0,0,1-.24-2.3c1.29-4.6,4-10.06,5.49-14.65,1.53-4.78,4.48-10.18,4.6-15.24C442,174,434,170.51,427,169c-3.71,7.5-17.62,34.59-26.31,37.44.13,2.3.64,4.54.43,6.83v.25a4.87,4.87,0,0,1,.48,1.53,5,5,0,0,1,0,1.34Z"/></g><path class="cls-2" d="M409.38,171.24s-11.6,31.94-7.92,45.62,22.87,9.46,27.59,1.08,13.84-38.75,13.84-38.75L433.43,161l-21,4.73-2,2.86Z"/><path class="cls-10" d="M518.06,53.57s4.45-4,1.13-8.29c0,0,4.44-3.15,1.23-8.62,0,0,4.88-6.18-1.23-10.3,0,0,3.12-6.44-4-6.31,0,0,1.21-6.79-5.94-4.25,0,0,.48-6.8-5.58-3.76,0,0-2.68-6.06-5.82.24,0,0-3.07-8-8.38-5.21,0,0-10.31-4.73-11.77,1.33,0,0-6.67-1.69-8.43,2.91,0,0-7.46-1-7.82,5.46,0,0-7,2.43-4.86,7.67,0,0-3.14,4.13-.42,8.25,0,0-2.61,2.79.42,7.88,0,0-1.33,5.22,2.3,9l44.28,7.28,2.06,10.07,8.59-3.39Z"/><path class="cls-11" d="M490.14,11c-1.62-2.09-4.6-3.91-9.8-1.64"/><path class="cls-11" d="M491.86,14.57a9.35,9.35,0,0,0-.67-1.83"/><path class="cls-11" d="M484.21,14.1S476.33,19,473.42,12"/><path class="cls-11" d="M496.86,20.1s-8.81,2.85-10-4.56"/><path class="cls-11" d="M489.81,26.25c-1.53-2.21-4.55-4.34-10-1.95"/><path class="cls-11" d="M491.31,29.52a10,10,0,0,0-.66-1.83"/><path class="cls-11" d="M473,29.19a7.51,7.51,0,0,1-1.11-1.87"/><path class="cls-11" d="M482.64,29.39s-5.21,3.2-8.72.69"/><path class="cls-11" d="M517.79,40.32s2.21-6.83-5.47-7.75"/><path class="cls-11" d="M504,37.39s-2.85,5.1,3.13,7.07"/><path class="cls-11" d="M513,37.1s-6.94.14-6.2-5.44"/><path class="cls-11" d="M512.32,47.7s-4.94-4.88-.43-8.24"/><path class="cls-11" d="M474.8,25.13s2.21-6.82-5.47-7.75"/><path class="cls-11" d="M461,22.24s-2.86,5.09,3.13,7.06"/><path class="cls-11" d="M470,21.92s-6.94.13-6.2-5.44"/><path class="cls-11" d="M469.33,32.51s-4.95-4.87-.43-8.23"/><path class="cls-11" d="M512.29,25.78S514.52,19,506.82,18"/><path class="cls-11" d="M498.48,22.85s-2.86,5.1,3.13,7.06"/><path class="cls-11" d="M507.54,22.55s-6.94.15-6.19-5.43"/><path class="cls-5" d="M561,125.07A970.92,970.92,0,0,0,546.91,267H436.64s12.5-65.84-1.53-151.71C435.13,115.28,492,74.81,561,125.07Z"/><g class="cls-12"><path class="cls-9" d="M556.65,131.29s-14.07,22.69-16.5,44.23a354.92,354.92,0,0,0-2.42,35.84l-62.6-16.46s37.85,32,58,45.34C542,246.09,547,265.18,547,265.18l1.31-27.58-1.65-58.54L561,138.57Z"/><polygon class="cls-9" points="501.76 126.61 488.56 116.5 474.62 126.11 470.4 112.13 483.71 106.91 501.09 108.97 506.92 116.77 501.76 126.61"/></g><path class="cls-2" d="M561,125.07A970.92,970.92,0,0,0,546.91,267H436.64s12.5-65.84-1.53-151.71C435.13,115.28,492,74.81,561,125.07Z"/><path class="cls-7" d="M577.39,178.85s1.7,45.05-14.2,60.66c0,0-19.11,4.37-75-38.09,0,0-5.55.48-8.43-2.92,0,0-9,3.16-13.72-1.93,0,0-6.05.23-7.41-5.37,0,0-3.83.49-5.18-1.21,0,0-4.6.24-5.25-2.18s4.54-4.38,4.54-4.38.1-5.57,2.41-7.27a18.25,18.25,0,0,1,4.44-2.43s-15.27-9.19-13.4-14.31,4.42,3.88,18.94,10.19c0,0,7.29.24,8.69,2.91l17.66,14.8s5.17,1.38,6.86,1.94c11,3.67,26.38,10.2,44.66,11.41l3.54-29.12S568.74,166.23,577.39,178.85Z"/><g class="cls-13"><polygon class="cls-9" points="554.04 171.24 548.84 200.9 543 200.69 543.51 196.57 546.15 174.88 548.27 165.39 552.77 166.35 554.04 171.24"/><path class="cls-9" d="M574.89,212.32s-5.5,18-12.17,24.52c0,0,6.07-9.46-20.62-16.25s-52.29-22.89-52.29-22.89-9.19-7.33-13.34-6-2.46,3.44-1.34,3.16a2.06,2.06,0,0,1,2.76,1.67c.09,1.52.15,2.58-1.66,2.74a21.49,21.49,0,0,1,3.54-.77c.76.26,3.73,2.08,4.6,2.4,1.24.47,2.46-.08,3.88.51,2.56,1.07,5.48,4.69,8.3,6.13,1.62.84,18.51,12.76,20.22,13.65,18.83,9.78,25,12.4,25,12.4l10,4.39,7.82,1.53h3.64l5.15-7,4.8-12.46.91-5.15Z"/><path class="cls-9" d="M472.91,199.45a3.44,3.44,0,0,1-1.48-2.88c.19-1.77-3.54.81-5.59-1.93,0,0-4.35-.29-7.2-5.66,0,0-4.73.83-5.43-1.27,0,0-.34-6.46-.89-6.19s-1.91,1.19-1.91,1.19l1.37,8.52,7.81,6.39,9.1,3.64h4.22Z"/><path class="cls-9" d="M457.79,173.76s1.94.2,6.76-1.7c0,0-7.09-1.79-11.68-5.47s-5.67-7.72-6.84-6,3.66,7.1,3.66,7.1Z"/></g><path class="cls-2" d="M577.39,178.85s1.7,45.05-14.2,60.66c0,0-19.11,4.37-75-38.09,0,0-5.55.48-8.43-2.92,0,0-9,3.16-13.72-1.93,0,0-6.05.23-7.41-5.37,0,0-3.83.49-5.18-1.21,0,0-4.6.24-5.25-2.18s4.54-4.38,4.54-4.38.1-5.57,2.41-7.27a18.25,18.25,0,0,1,4.44-2.43s-15.27-9.19-13.4-14.31,4.42,3.88,18.94,10.19c0,0,7.29.24,8.69,2.91l17.66,14.8s5.17,1.38,6.86,1.94c11,3.67,26.38,10.2,44.66,11.41l3.54-29.12S568.74,166.23,577.39,178.85Z"/><path class="cls-2" d="M544.75,200.9c6.2.31,8.77-1.25,14,5.73"/><path class="cls-2" d="M468.69,177.52s-8.93,3.83-9.4,6.13a62.5,62.5,0,0,0-.65,7.61"/><path class="cls-2" d="M473.41,182.61a7.59,7.59,0,0,1-2.52,3c-2.51,1.84-5.31,2.09-5.37,4.36a62.12,62.12,0,0,0,.49,6.59"/><line class="cls-2" x1="452.75" y1="183.45" x2="453.46" y2="190.02"/><line class="cls-2" x1="459.59" y1="173.76" x2="466.97" y2="171.24"/><path class="cls-2" d="M477.35,190.93a19.05,19.05,0,0,1-4.44,3.21"/><path class="cls-14" d="M435.13,115.28S409.24,125.55,407.94,171a1.17,1.17,0,0,0,1.15,1.2,1.11,1.11,0,0,0,.7-.21c4-2.85,14.32-6.69,31.65,10.19a1.28,1.28,0,0,0,1.82,0,1.35,1.35,0,0,0,.37-.89v-.06c0-4.85-.07-14.86-1.08-26.59C441.49,142.09,439.35,127.54,435.13,115.28Z"/><path class="cls-2" d="M414.69,163.45c6.06-1.12,17-.67,27.92,12.07"/><path class="cls-2" d="M409.85,165a15.5,15.5,0,0,1,2.81-1"/><path class="cls-7" d="M517.09,104.91s-8.55-13.28-6.18-36.22l-35,2.3s-.31,30.33-11.49,31.94l9.13,11.68,8.05.6,13.92.06,20.29-6.55Z"/><g class="cls-15"><path class="cls-10" d="M507.7,73.14a59.48,59.48,0,0,1-8.3,2.35,3.35,3.35,0,0,1-2.52,2.3c-3.89.86-7.86,1.1-11.77,1.83a81.29,81.29,0,0,1-11.54,1.74c-4.17.17-8.24-.77-12.26-1.77l-.26-.06a20.68,20.68,0,0,1,4.45,6.59c.65,1.78.71,3.83,1.53,5.5.4.86,1.14,1.47,1.58,2.3h0a3.06,3.06,0,0,1,1.95,3.87l-.15.37-.23.55a4.34,4.34,0,0,1-2.43,2.52c2.3,2.8,4.56,4.6,6.55,4.6,6.59,0,19.3-3.93,27.47-12.26,7.8-7.91,7.79-22.1,7.81-23.23C508.82,70.6,508.45,72.87,507.7,73.14Z"/></g><path class="cls-2" d="M517.09,104.91s-8.55-13.28-6.18-36.22l-35,2.3s-.31,30.33-11.49,31.94l9.13,11.68,8.05.6,13.92.06,20.29-6.55Z"/><path class="cls-16" d="M510.49,56.72s2-8,6.6-6.9,1.64,27.12-8,20.57c0,0,0,13-8.19,21.29s-17.25,10.79-23.83,10.79-16.53-19.92-18.19-30.08-1.1-33.66,1.26-36.58,31.47.55,37.94-2.18-.82,11.65,2.65,15.1,6,.77,5.28,14.56l2.9-2.73Z"/><path class="cls-17" d="M483.71,63.3A1.89,1.89,0,1,0,485.55,61,2.13,2.13,0,0,0,483.71,63.3Z"/><path class="cls-17" d="M464.68,63.3A1.89,1.89,0,1,0,466.51,61,2.13,2.13,0,0,0,464.68,63.3Z"/><path class="cls-18" d="M495.5,54.86s-5.46-5.7-13.79,0"/><path class="cls-18" d="M469.9,55.48s-6.8-7.15-9.71-1.88"/><path class="cls-6" d="M491.73,82.45s-16.32,5.44-23.29.76C468.47,83.25,477.23,98.48,491.73,82.45Z"/><path class="cls-2" d="M482.63,71s2.65,2.4,1,4.47a2.9,2.9,0,0,1-3.12.85,2.78,2.78,0,0,0-2.95.5c-1.46,1.58-5.21,1.22-6.43-.76a5.81,5.81,0,0,0-1.74-.36,1.7,1.7,0,0,1-1.67-1.36c-.16-1,.17-2.3,2.17-3.31"/><path class="cls-2" d="M472.57,59.38a25.5,25.5,0,0,1,.87,9.08"/><path class="cls-19" d="M488.34,82.19s-7-1.67-11.26.35a1.55,1.55,0,0,1-1.53-.07,7.18,7.18,0,0,0-5.64-.67"/><path class="cls-14" d="M516.85,103.18c-3.21,2.86-14.43,9-29.5,12.1l6.82,1.09L502.8,128s17.81-9.65,21.83-22.93l-4-2.22A3.27,3.27,0,0,0,516.85,103.18Z"/><path class="cls-14" d="M466.34,102.41c2.69,3.43,6.6,9.87,21.4,12.87l-6.65,1.09L473.36,128s-13-8.73-14.23-24.39l3.35-2A3,3,0,0,1,466.34,102.41Z"/><path class="cls-19" d="M489.43,64.57a9.62,9.62,0,0,1-7.76,0"/><path class="cls-19" d="M470.4,64.57a9.62,9.62,0,0,1-7.76,0"/><path class="cls-14" d="M561,125.07s19.67,7.14,17.57,55.61a.88.88,0,0,1-.94.81.84.84,0,0,1-.59-.29c-2.94-3.7-11.07-10.29-29.92-6.13a1.09,1.09,0,0,1-1.31-.85,1,1,0,0,1,0-.34C546.55,166.71,550.45,136,561,125.07Z"/><path class="cls-2" d="M548.84,168.51l-1.15.27"/><path class="cls-2" d="M558,167.48a38.41,38.41,0,0,0-7.85.77"/><path class="cls-2" d="M573.14,171.65a28.65,28.65,0,0,0-13.59-4.14"/><path class="cls-2" d="M577,174.61a20.77,20.77,0,0,0-2.34-1.94"/><path class="cls-6" d="M452.87,166.59a1.2,1.2,0,0,1-1,.46H434.13a2.7,2.7,0,0,1-2.3-1.71l-13.93-39a1.33,1.33,0,0,1,.07-1.21l1.39-1.54a1.2,1.2,0,0,1,1-.45h17.73a2.7,2.7,0,0,1,2.3,1.72l13.89,39a1.38,1.38,0,0,1-.06,1.22Z"/><path class="cls-10" d="M434.13,167.05h17.73A1.16,1.16,0,0,0,453.1,166a1.14,1.14,0,0,0-.13-.63l-13.9-39a2.7,2.7,0,0,0-2.3-1.71H419a1.18,1.18,0,0,0-1.25,1.09,1.2,1.2,0,0,0,.13.62l13.9,39A2.7,2.7,0,0,0,434.13,167.05Z"/><path class="cls-16" d="M434.32,133.75h4.21a1.16,1.16,0,0,0,1.24-1.08,1.07,1.07,0,0,0-.14-.63l-1.53-4.21a2.68,2.68,0,0,0-2.3-1.72h-4.2a1.16,1.16,0,0,0-1.24,1.09,1.14,1.14,0,0,0,.13.63L432,132A2.7,2.7,0,0,0,434.32,133.75Z"/><path d="M431.61,128.16a1.53,1.53,0,0,0,1.36,1,.67.67,0,0,0,.72-.64.72.72,0,0,0-.08-.35,1.59,1.59,0,0,0-1.35-1,.7.7,0,0,0-.73.64A.67.67,0,0,0,431.61,128.16Z"/><path d="M435.94,129.93a1.57,1.57,0,0,0,1.36,1,.67.67,0,0,0,.72-.64.66.66,0,0,0-.08-.36,1.54,1.54,0,0,0-1.36-1,.69.69,0,0,0-.72.64A.73.73,0,0,0,435.94,129.93Z"/><path d="M432.88,131.71a1.52,1.52,0,0,0,1.35,1,.68.68,0,0,0,.72-.64.71.71,0,0,0-.07-.35,1.59,1.59,0,0,0-1.36-1,.68.68,0,0,0-.72.64A.69.69,0,0,0,432.88,131.71Z"/><path class="cls-7" d="M418.48,171.24s-17.56,32.67-17,45.62,8.67,17.28,8.67,17.28,21.95-1.09,22.31-27.11l3-25.29s7.67-2.6,10.73-8c0,0,7.66-2.6,10.07-7s3.83-10,1.42-10.92-4.1,7-6.2,8.55c-1.4,1-3.65,2.3-5,3.07a1.16,1.16,0,0,1-1.56-.51s0,0,0-.08h0a1,1,0,0,1,.32-1.28,23.53,23.53,0,0,0,4.8-4.6c2.3-3.06,8.8-12,5.57-14s-8.53,7.75-10.63,9.37c-1.28,1-3.06,2.17-4.19,2.9a1.92,1.92,0,0,1-2.3-.26l-.13-.11a2,2,0,0,1-.49-2.3,33.52,33.52,0,0,1,2-3.72c1.39-1.84,3.25-3.62,6.13-6.94s5.65-5.86,3.63-7.44c-4-3.06-14.27,8.56-15.63,10a15.18,15.18,0,0,0-2.13,3.49,1.1,1.1,0,0,1-1.49.49l0,0h0a1.28,1.28,0,0,1-.66-1,27.37,27.37,0,0,1-.05-6.06c.45-1.81,1.74-3.07,3.6-6.41,1.64-2.9,3.54-6,2.18-7.24-2.92-2.73-8.72,5.64-8.72,5.64l-4.16,7.5s1.74-3.83-.39-5.65-2,2.37-3.84,4.55-.07,6.74-.57,10a43.54,43.54,0,0,0-.51,5.82Z"/><g class="cls-20"><path class="cls-9" d="M442.61,172.5a36.07,36.07,0,0,1-6.49-6.34c-2.18-2.84-3.63-6.66-6.36-6.66s-5-3.67-8-1.53.77,11.88,0,15.82,4,69.81-18.29,52.06a17.64,17.64,0,0,0,1.54,3.83.57.57,0,0,0,.08.13c.18.22.35.45.48.64h0l.1.23a11.26,11.26,0,0,0,4.59,3.54c.32,0,.65,0,1,0l.35-.15.87-.32a4.22,4.22,0,0,1,2-.81l.68-.11a21.13,21.13,0,0,1,2.93-.69c.26-.08.52-.18.77-.28a36.76,36.76,0,0,0,8.72-7.19,23.16,23.16,0,0,1,2.26-4.74c.77-1.3,1.54-2.47,1.47-4a3.52,3.52,0,0,1,.77-2.46c.33-4.49.45-8.86,1.18-13.34.81-4.9,1.72-9.73,1.7-14.72a4.21,4.21,0,0,1,.05-.62,4,4,0,0,1,.09-1.54,4.19,4.19,0,0,1,1.75-2.3c.69-.49,1.49-.83,2.17-1.33a2.9,2.9,0,0,1,1.17-.46C441.49,177.71,444.46,174,442.61,172.5Z"/><path class="cls-9" d="M448.82,159a9.69,9.69,0,0,1-1.53-1.54,1,1,0,0,0-1.44-.2,1.26,1.26,0,0,0-.2.2,14.46,14.46,0,0,1-4.4,4.25s1.64,3.64,3.28,2.91c1.17-.52,3.33-2.87,4.45-4.15a1,1,0,0,0-.12-1.44Z"/><path class="cls-9" d="M438.21,151.58a7,7,0,0,1-2.78-1.78.57.57,0,0,0-.81-.06.4.4,0,0,0-.13.16l-1.88,3.6a6.76,6.76,0,0,0,3.27,2.63,28.46,28.46,0,0,1,2.54-3.63.56.56,0,0,0,0-.81A.62.62,0,0,0,438.21,151.58Z"/><path class="cls-9" d="M428.75,144.58s-2.22,2.91-4.36,2.09v5.19l4.36-.27A16,16,0,0,1,428.75,144.58Z"/><path class="cls-9" d="M454.05,168.15a22.37,22.37,0,0,1-6.39,1.68,1.24,1.24,0,0,0-1.21.95L446,172.5S449.5,172.06,454.05,168.15Z"/><path class="cls-9" d="M422.88,143.71a12,12,0,0,1-2.86,3.87c-1.55,1.09.18,1.86,0,4.39C420,152,422.37,145.65,422.88,143.71Z"/></g><path class="cls-2" d="M418.48,171.24s-17.56,32.67-17,45.62,8.67,17.28,8.67,17.28,21.95-1.09,22.31-27.11l3-25.29s7.67-2.6,10.73-8c0,0,7.66-2.6,10.07-7s3.83-10,1.42-10.92-4.1,7-6.2,8.55c-1.4,1-3.65,2.3-5,3.07a1.16,1.16,0,0,1-1.56-.51s0,0,0-.08h0a1,1,0,0,1,.32-1.28,23.53,23.53,0,0,0,4.8-4.6c2.3-3.06,8.8-12,5.57-14s-8.53,7.75-10.63,9.37c-1.28,1-3.06,2.17-4.19,2.9a1.92,1.92,0,0,1-2.3-.26l-.13-.11a2,2,0,0,1-.49-2.3,33.52,33.52,0,0,1,2-3.72c1.39-1.84,3.25-3.62,6.13-6.94s5.65-5.86,3.63-7.44c-4-3.06-14.27,8.56-15.63,10a15.18,15.18,0,0,0-2.13,3.49,1.1,1.1,0,0,1-1.49.49l0,0h0a1.28,1.28,0,0,1-.66-1,27.37,27.37,0,0,1-.05-6.06c.45-1.81,1.74-3.07,3.6-6.41,1.64-2.9,3.54-6,2.18-7.24-2.92-2.73-8.72,5.64-8.72,5.64l-4.16,7.5s1.74-3.83-.39-5.65-2,2.37-3.84,4.55-.07,6.74-.57,10a43.54,43.54,0,0,0-.51,5.82Z"/><path class="cls-2" d="M422.25,145.85s-2.12,7.28-3.37,7.66"/><path class="cls-2" d="M528.63,255.4c1,.13,2,.25,3.06.36"/><path class="cls-2" d="M484.34,247.14a305.18,305.18,0,0,0,40.47,7.77"/><path class="cls-2" d="M456.15,235.05c3.57,2.79,10.68,6.89,24.52,11"/><path class="cls-2" d="M452.75,231.51a8.1,8.1,0,0,0,1.59,2"/><path class="cls-19" d="M491.29,118.93,490,156.2h0a6.53,6.53,0,0,1-6.58-6.49c0-.11,0-.21,0-.32l1.06-30.46"/><path class="cls-21" d="M490,122.36a2.3,2.3,0,1,1-2.3-2.3A2.3,2.3,0,0,1,490,122.36Z"/><circle class="cls-21" cx="486.75" cy="147.42" r="2.3"/><path class="cls-22" d="M490.76,81.17a6.94,6.94,0,0,0,2.55,2.23"/><path class="cls-19" d="M470.89,86.25s1.09,1.34,4,1.44"/><path class="cls-22" d="M491.73,82.45a32,32,0,0,1-5.86,3.67"/><path class="cls-19" d="M469.36,86.45s2.53,8.42,10.52,7.43,10.88-8.73,10.88-8.73"/></g></svg>