<svg id="Layer_1" data-name="Layer 1" xmlns="http://www.w3.org/2000/svg" xmlns:xlink="http://www.w3.org/1999/xlink" viewBox="0 0 600 270"><defs><style>.cls-1,.cls-16,.cls-3,.cls-7{fill:none;}.cls-15,.cls-2{fill:#263238;}.cls-12,.cls-13,.cls-16,.cls-2,.cls-7,.cls-8{stroke:#263238;stroke-linecap:round;stroke-linejoin:round;}.cls-3{stroke:#616161;stroke-miterlimit:10;}.cls-12,.cls-4{fill:#92e3a9;}.cls-5{clip-path:url(#clip-path);}.cls-11,.cls-6{opacity:0.2;}.cls-8{fill:#fff;}.cls-13,.cls-9{fill:#b2b2b2;}.cls-10{clip-path:url(#clip-path-2);}.cls-11{isolation:isolate;}.cls-14{clip-path:url(#clip-path-3);}.cls-16{stroke-width:2px;}.cls-17{clip-path:url(#clip-path-4);}.cls-18{clip-path:url(#clip-path-5);}</style><clipPath id="clip-path"><path class="cls-1" d="M538.21,271a83,83,0,0,0-6.48-35.36c-7.77-17.68-9.52-18.95-9.52-24.13s5.2-11.22,6.07-22.86a130.16,130.16,0,0,0,.43-17.28s18.54,29.32,31.48,31,20.69-10.35,15.95-26.74-25.44-29.74-33.63-40.53-26.74-10.8-36.22-10.8-14.23-3.45-16-9.91S488.61,95,488.61,95s-11.21,6.9-30.18-.86c0,0,1.72,23.71-.44,27.16s-5.15,7-18.09,7-23.71,2.59-29.75,8.64-31,30.18-37.51,39.67-3,19.84,4.74,23.72,15.52.42,21.13-4.75S421.8,174,421.8,174s0,9.92,4.74,24.15,8.64,12.5,5.17,22.85-10.35,13.37-12.5,26.73A127,127,0,0,0,417.48,271"/></clipPath><clipPath id="clip-path-2"><path class="cls-1" d="M470.08,157.17c21.52,4.15,29.82-16.47,32.7-32.95-7.16-.79-10.93-4.12-12.43-9.73-1.72-6.48-1.72-19.44-1.72-19.44s-11.22,6.9-30.19-.86c0,0,1.73,23.71-.43,27.16-1.5,2.4-3.43,4.81-8.83,6C449,134.79,450.48,153.39,470.08,157.17Z"/></clipPath><clipPath id="clip-path-3"><path class="cls-1" d="M446.9,71.57s.72,19.29,14.92,28.75,24.74,4,30.57-4,9.46-16,9.46-27.66,1.44-16.74-2.54-24-17.84-10.92-17.84-10.92a218.48,218.48,0,0,1-18.56,20.39C452,64.65,446.9,71.57,446.9,71.57Z"/></clipPath><clipPath id="clip-path-4"><path class="cls-1" d="M372.64,176.58s-7.76,8.64-7.76,17.67,5.17,17.28,19.44,30.18,27.59,22.42,33.2,25.45,11.21-.87,11.21-.87,9.27,9.27,10.34,7.12-3.23-5.4-4.09-6.69a18.07,18.07,0,0,0-2.59-2.8s4.53.64,6.26,2.16,4.52,4.1,5.82,3.88,1.29-1.29-.65-3.88a23.15,23.15,0,0,0-5.6-5.17c-1.3-.86-5.61-3.24-5.61-3.24s6.25-.43,8.41.87,8,5.18,8.41,3.45.43-2.8-1.73-4.75-6.48-4.32-9.05-4.74a26.73,26.73,0,0,1-5.18-1.51s5-1.72,6.68-1.72,8.64,3.44,10.57,3,.86-2.16-.64-3.24-8.2-3.67-11-3.88-18.53,5.18-20.47,5.18-6.9-6.9-12.07-16.17-7.12-23.72-18.11-28.67"/></clipPath><clipPath id="clip-path-5"><path class="cls-1" d="M543.64,184.67c-1.8-4.11-.26-13.11,1.54-26s3.6-26,3.6-32.9,1.15-16.56-1.11-19.67-10.49-11.51-11.11-15.42,4.94-9.87,4.94-9.87,1.64-3.09,3.08-1.44.82,3.7,0,6.58-1.64,5.14-1.64,5.14,7.19,2.26,9,1,1.68-8.27,1.55-11.72c-.27-6.72-3-3.85-4.82-.67-.9,1.53-6.17.62-3.09-3.29s5.94-7.36,8.82-4.27,4.94,9.05,4.94,9.05,2.06-9.8,3.93-15.56,5.22-8,6.43-7.63,1.08,2.41-.13,5.22-3.89,10.59-4.56,13.13-.8,5.5.54,5.23,6-8.44,7.37-11.93,3.35-6.69,5.62-8.17,4.16.4,3.22,2.82a122.36,122.36,0,0,1-6.32,12.72,55.34,55.34,0,0,0-3.75,8.31,93.79,93.79,0,0,1,7-6.7c3.22-2.68,6.7-3.21,7.77-2.28s.14,1.08-2.54,3.22-6.68,4.7-9.89,9.92a49.28,49.28,0,0,0-5.76,12.32,41.43,41.43,0,0,1-3.89,8.18s2.52,20.4,6.87,31.63,12.06,27.64,9.71,39.37-6.86,17.75-13.23,19.59a12.26,12.26,0,0,1-10.88-2"/></clipPath></defs><g id="freepik--Character--inject-1284"><path class="cls-2" d="M487.77,18.34s0-10.8-18.54-8.64-26.31,18.54-31.91,22-16,6.48-16.39,11.64,4.32,7.33-.43,11.21-12,7.35-10.35,12.53,6.48,10.34,4.32,13.8-8.19,6.89-2.59,10.8,8.19,4.74,8.19,9.91-2.16,8.64,3,10.35,8.18-1.73,11.21,4.74,6,8.19,11.21,6.9,12.5-3.45,15.12-1.72,10.8,6.48,14.22,3.88,6.48-6.48,11.65-4.32,9.48,5.17,11.64,1.29,0-4.74,8.19-6.48,11.21-1.28,11.21-8.18S517.12,99.4,521,96.4s7.33-1.73,6-9.06-3.88-9.06-2.59-16.39S522.29,61,519.7,58.88s-5.6-6-4.73-9.91,7.32-4.32.85-11.21S506.34,33,505,27.83,499.41,11.44,487.77,18.34Z"/><path class="cls-3" d="M471.21,31.32c-2.65,4.2-4.71,9-9,13-6.18,5.76-22,10.8-22.77,16.21S441.39,69,436,73.61s-13.9,5.76-13.9,10.42,2.31,6.18,1.16,9.65"/><path class="cls-3" d="M482.69,26.14s-1.93-5-7.34,0c-.41.38-.81.79-1.18,1.2"/><path class="cls-3" d="M439.09,48.2c-4.75,1.15-8.5,2-8.89,5.34-.78,6.56.38,10.8-4.25,12.74s-10.8,5-8.88,8.88,2.31,5,1.93,6.56"/><path class="cls-3" d="M481.9,20s-10.8-6.94-16.56-.77-3.09,13.89-12,22.39a22.41,22.41,0,0,1-7.82,4.74"/><path class="cls-3" d="M519.46,74.7a7,7,0,0,0,2.6,2.39"/><path class="cls-3" d="M489.64,29.63s9.64-3.09,12,2.31,3.47,15.05,7.72,16.6,6.17,3.86,6.17,12.35A27.31,27.31,0,0,0,516.7,69"/><path class="cls-3" d="M427.11,98.31c3.09-5,7.33-3.08,7.72-8.49s-2.7-6.94.38-10.41a20.5,20.5,0,0,1,8.1-5"/><path class="cls-3" d="M431.35,109.13a18.5,18.5,0,0,1-3.67-4.13"/><path class="cls-4" d="M538.21,271a83,83,0,0,0-6.48-35.36c-7.77-17.68-9.52-18.95-9.52-24.13s5.2-11.22,6.07-22.86a130.16,130.16,0,0,0,.43-17.28s18.54,29.32,31.48,31,20.69-10.35,15.95-26.74-25.44-29.74-33.63-40.53-26.74-10.8-36.22-10.8-14.23-3.45-16-9.91S488.61,95,488.61,95s-11.21,6.9-30.18-.86c0,0,1.72,23.71-.44,27.16s-5.15,7-18.09,7-23.71,2.59-29.75,8.64-31,30.18-37.51,39.67-3,19.84,4.74,23.72,15.52.42,21.13-4.75S421.8,174,421.8,174s0,9.92,4.74,24.15,8.64,12.5,5.17,22.85-10.35,13.37-12.5,26.73A127,127,0,0,0,417.48,271"/><g class="cls-5"><g class="cls-6"><path d="M509.92,137.87c-.3,0-1.38.72,0,2.82C511.29,138.61,510.21,137.87,509.92,137.87Z"/><path d="M544.48,137.87c-.3,0-1.38.72,0,2.82C545.85,138.61,544.77,137.87,544.48,137.87Z"/><path d="M544.48,155.15c-.3,0-1.38.72,0,2.82C545.85,155.89,544.77,155.15,544.48,155.15Z"/><path d="M509.92,155.15c-.3,0-1.38.72,0,2.82C511.29,155.89,510.21,155.15,509.92,155.15Z"/><path d="M527.2,146.51c-.3,0-1.38.72,0,2.82C528.57,147.25,527.49,146.51,527.2,146.51Z"/><path d="M527.2,129.23c-.3,0-1.38.72,0,2.82C528.57,130,527.49,129.23,527.2,129.23Z"/><path d="M510.7,141.12c2.49.14,2.57-1.17,2.43-1.44S511.77,138.88,510.7,141.12Z"/><path d="M547.36,140.62l-1-1a3.39,3.39,0,0,0-1.19,1.48A2.9,2.9,0,0,0,547.36,140.62Z"/><path d="M528,149.76c2.5.14,2.58-1.17,2.44-1.44S529.05,147.52,528,149.76Z"/><path d="M528,132.48c2.5.14,2.58-1.17,2.44-1.44S529.05,130.24,528,132.48Z"/><path d="M541.29,139.7c-.14.25,0,1.56,2.44,1.44C542.63,138.88,541.44,139.44,541.29,139.7Z"/><path d="M541.29,157a.9.9,0,0,0,.38,1h0a3,3,0,0,0,2.06.43c-.07-.15-.15-.29-.23-.43C542.47,156.24,541.44,156.74,541.29,157Z"/><path d="M524,148.34c-.14.25,0,1.56,2.44,1.44C525.35,147.52,524.17,148.08,524,148.34Z"/><path d="M524,131.06c-.14.25,0,1.56,2.44,1.44C525.35,130.24,524.17,130.8,524,131.06Z"/><path d="M509.92,189.71c-.3,0-1.38.72,0,2.81C511.29,190.44,510.21,189.71,509.92,189.71Z"/><path d="M544.48,189.71c-.22,0-.84.39-.64,1.39.3.32.6.65.91,1C545.69,190.34,544.75,189.71,544.48,189.71Z"/><path d="M509.92,207c-.3,0-1.38.72,0,2.81C511.29,207.72,510.21,207,509.92,207Z"/><path d="M561.75,198.35c-.29,0-1.37.72,0,2.81C563.13,199.08,562.05,198.35,561.75,198.35Z"/><path d="M509.92,172.43c-.3,0-1.38.72,0,2.82C511.29,173.17,510.21,172.43,509.92,172.43Z"/><path d="M544.48,172.43c-.3,0-1.38.72,0,2.82C545.85,173.17,544.77,172.43,544.48,172.43Z"/><path d="M527.2,181.07c-.3,0-1.38.72,0,2.82C528.57,181.8,527.49,181.07,527.2,181.07Z"/><path d="M561.75,181.07c-.29,0-1.37.72,0,2.82C563.13,181.8,562.05,181.07,561.75,181.07Z"/><path d="M527.2,163.79c-.3,0-1.38.72,0,2.82C528.57,164.53,527.49,163.79,527.2,163.79Z"/><path d="M561.75,163.79c-.29,0-1.37.72,0,2.82C563.13,164.53,562.05,163.79,561.75,163.79Z"/><path d="M510.7,193c2.49.13,2.57-1.17,2.43-1.44S511.77,190.72,510.7,193Z"/><path d="M545.36,192.7l.26.26c2.1,0,2.16-1.18,2-1.44S546.42,190.77,545.36,192.7Z"/><path d="M512.55,208.56a1.29,1.29,0,0,0-.86.3,3,3,0,0,0-.4.39,3.44,3.44,0,0,0-.39.55v0a2.36,2.36,0,0,0-.2.39,3,3,0,0,0,2.05-.44h0a.93.93,0,0,0,.15-.13,1,1,0,0,0,.18-.26.52.52,0,0,0-.06-.74.53.53,0,0,0-.44-.11Z"/><path d="M562.53,201.6c2.49.13,2.58-1.17,2.44-1.44S563.61,199.36,562.53,201.6Z"/><path d="M510.7,175.68c2.49.13,2.57-1.17,2.43-1.44S511.77,173.44,510.7,175.68Z"/><path d="M547.66,174.26c-.15-.26-1.33-.82-2.44,1.44C547.71,175.81,547.8,174.51,547.66,174.26Z"/><path d="M528,184.32q.31,0,.63,0c0-.36,0-.72,0-1A4.61,4.61,0,0,0,528,184.32Z"/><path d="M562.53,184.32c2.49.13,2.58-1.17,2.44-1.44S563.61,182.08,562.53,184.32Z"/><path d="M528,167c2.5.14,2.58-1.17,2.44-1.44S529.05,164.8,528,167Z"/><path d="M562.53,167c2.49.14,2.58-1.17,2.44-1.44S563.61,164.8,562.53,167Z"/><path d="M525.3,201.54l.4-1.07c-.84-.87-1.57-.49-1.69-.29S523.94,201.29,525.3,201.54Z"/><path d="M575.85,191.54a.92.92,0,0,0,.48,1.06c.16-.41.28-.85.41-1.28A.84.84,0,0,0,575.85,191.54Z"/><path d="M558.57,200.18c-.15.25-.05,1.55,2.44,1.44C559.9,199.36,558.72,199.92,558.57,200.18Z"/><path d="M541.29,174.26c-.14.25,0,1.55,2.44,1.44C542.63,173.44,541.44,174,541.29,174.26Z"/><path d="M524,182.9c-.14.25,0,1.55,2.44,1.44C525.35,182.08,524.17,182.64,524,182.9Z"/><path d="M558.57,182.9c-.15.25-.05,1.55,2.44,1.44C559.9,182.08,558.72,182.64,558.57,182.9Z"/><path d="M524,165.62c-.14.25,0,1.56,2.44,1.44C525.35,164.8,524.17,165.36,524,165.62Z"/><path d="M558.57,165.62c-.15.25-.05,1.56,2.44,1.44C559.9,164.8,558.72,165.36,558.57,165.62Z"/><path d="M547.28,158h0a.9.9,0,0,0,.38-1c-.15-.24-1.18-.72-2.2,1h0a3.62,3.62,0,0,0-.24.43A3,3,0,0,0,547.28,158Z"/><path d="M512.73,158h0a.91.91,0,0,0,.37-1c-.14-.24-1.17-.72-2.2,1h0a2.55,2.55,0,0,0-.23.43A3.06,3.06,0,0,0,512.73,158Z"/><path d="M509.92,241.55c-.3,0-1.38.72,0,2.81C511.29,242.28,510.21,241.55,509.92,241.55Z"/><path d="M509.92,258.83c-.3,0-1.38.72,0,2.81C511.29,259.56,510.21,258.83,509.92,258.83Z"/><path d="M527.2,250.19c-.3,0-1.38.72,0,2.81C528.57,250.92,527.49,250.19,527.2,250.19Z"/><path d="M509.92,224.27c-.3,0-1.38.72,0,2.81C511.29,225,510.21,224.27,509.92,224.27Z"/><path d="M527.2,232.91c-.3,0-1.38.72,0,2.81C528.57,233.64,527.49,232.91,527.2,232.91Z"/><path d="M510.7,244.79c2.49.14,2.57-1.16,2.43-1.44S511.77,242.55,510.7,244.79Z"/><path d="M512.55,260.4h-.15a1.21,1.21,0,0,0-.52.16l-.19.13a3.25,3.25,0,0,0-.79.94h0a2.64,2.64,0,0,0-.23.44,3.06,3.06,0,0,0,2.06-.44h0a.9.9,0,0,0,.37-1A.73.73,0,0,0,512.55,260.4Z"/><path d="M528,253.43c2.5.14,2.58-1.16,2.44-1.44S529.05,251.19,528,253.43Z"/><path d="M510.7,227.51c2.49.14,2.57-1.16,2.43-1.44S511.77,225.28,510.7,227.51Z"/><path d="M528,236.15c2.5.14,2.58-1.16,2.44-1.44S529.05,233.92,528,236.15Z"/><path d="M524,252c-.14.26,0,1.56,2.44,1.44C525.35,251.19,524.17,251.76,524,252Z"/><path d="M524,234.74c-.14.25,0,1.55,2.44,1.44C525.35,233.92,524.17,234.48,524,234.74Z"/><path d="M527.2,267.47c-.3,0-1.38.71,0,2.81C528.57,268.2,527.49,267.47,527.2,267.47Z"/><path d="M528,270.71c2.5.14,2.58-1.16,2.44-1.44S529.05,268.47,528,270.71Z"/><path d="M524,269.29c-.14.26,0,1.56,2.44,1.44C525.35,268.47,524.17,269,524,269.29Z"/><path d="M475.36,103.31c-.29,0-1.37.72,0,2.82C476.74,104.05,475.66,103.31,475.36,103.31Z"/><path d="M458.49,94.91c0,.39.06.93.1,1.61A1.51,1.51,0,0,0,458.49,94.91Z"/><path d="M478,104.88a1.36,1.36,0,0,0-.87.31,2.11,2.11,0,0,0-.4.39,3,3,0,0,0-.39.55v0a3.55,3.55,0,0,0-.2.39,3,3,0,0,0,2.06-.43h0a.86.86,0,0,0,.14-.13,1.2,1.2,0,0,0,.18-.26.53.53,0,0,0-.52-.86Z"/><path d="M458.86,97.92c2.49.14,2.58-1.16,2.43-1.44S459.93,95.68,458.86,97.92Z"/><path d="M441.46,138.67a.8.8,0,0,0-.09-.31h0a.54.54,0,0,0-.07-.13h0a.77.77,0,0,0-.17-.19h0a.62.62,0,0,0-.17-.11h0a.3.3,0,0,0-.29,0c-.33.14-.87.72-.26,2.06a5.13,5.13,0,0,0,.41.72,6.37,6.37,0,0,0,.41-.72,2.58,2.58,0,0,0,.27-1.09v-.2Z"/><path d="M475.36,137.87c-.29,0-1.37.72,0,2.82C476.74,138.61,475.66,137.87,475.36,137.87Z"/><path d="M475.36,155.15c-.29,0-1.37.72,0,2.82C476.74,155.89,475.66,155.15,475.36,155.15Z"/><path d="M441.46,156a.9.9,0,0,0-.09-.32h0l-.07-.13h0a.73.73,0,0,0-.17-.18h0a.62.62,0,0,0-.17-.11h0a.3.3,0,0,0-.29,0c-.33.14-.87.72-.26,2.06a5.13,5.13,0,0,0,.41.72,6.37,6.37,0,0,0,.41-.72,2.58,2.58,0,0,0,.27-1.09V156Z"/><path d="M458.08,146.51c-.29,0-1.37.72,0,2.82C459.46,147.25,458.38,146.51,458.08,146.51Z"/><path d="M492.64,146.51c-.3,0-1.38.72,0,2.82C494,147.25,492.93,146.51,492.64,146.51Z"/><path d="M475.36,120.59c-.29,0-1.37.72,0,2.82C476.74,121.33,475.66,120.59,475.36,120.59Z"/><path d="M458.08,129.23c-.29,0-1.37.72,0,2.82C459.46,130,458.38,129.23,458.08,129.23Z"/><path d="M492.64,129.23c-.3,0-1.38.72,0,2.82C494,130,492.93,129.23,492.64,129.23Z"/><path d="M441.58,141.12c2.49.14,2.58-1.17,2.43-1.44S442.65,138.88,441.58,141.12Z"/><path d="M476.14,141.12c2.48.14,2.58-1.17,2.43-1.44S477.21,138.88,476.14,141.12Z"/><path d="M458.86,149.76c2.49.14,2.58-1.17,2.43-1.44S459.93,147.52,458.86,149.76Z"/><path d="M493.42,149.76c2.48.14,2.57-1.17,2.43-1.44S494.49,147.52,493.42,149.76Z"/><path d="M476.14,123.84c2.48.14,2.58-1.17,2.43-1.44S477.21,121.6,476.14,123.84Z"/><path d="M458.86,132.48c2.49.14,2.58-1.17,2.43-1.44S459.93,130.24,458.86,132.48Z"/><path d="M493.42,132.48c2.48.14,2.57-1.17,2.43-1.44S494.49,130.24,493.42,132.48Z"/><path d="M461.26,113.78c-.14-.24-1.19-.72-2.24,1v.37C461.31,115.3,461.41,114,461.26,113.78Z"/><path d="M472.18,139.7c-.15.25-.05,1.56,2.43,1.44C473.51,138.88,472.33,139.44,472.18,139.7Z"/><path d="M472.18,157a.9.9,0,0,0,.37,1h0a3,3,0,0,0,2.06.43,3.55,3.55,0,0,0-.23-.43C473.35,156.24,472.32,156.74,472.18,157Z"/><path d="M454.9,148.34c-.14.25,0,1.56,2.43,1.44C456.23,147.52,455.05,148.08,454.9,148.34Z"/><path d="M506.74,139.7c-.16.25-.05,1.56,2.43,1.44C508.07,138.88,506.89,139.44,506.74,139.7Z"/><path d="M508.94,158c-1-1.73-2.06-1.23-2.2-1a.88.88,0,0,0,.37,1h0a3,3,0,0,0,2.06.43c-.07-.15-.15-.29-.23-.43Z"/><path d="M489.46,148.34c-.15.25,0,1.56,2.43,1.44C490.79,147.52,489.61,148.08,489.46,148.34Z"/><path d="M472.18,122.42c-.15.25-.05,1.56,2.43,1.44C473.51,121.6,472.33,122.16,472.18,122.42Z"/><path d="M454.9,131.06c-.14.25,0,1.56,2.43,1.44C456.23,130.24,455.05,130.8,454.9,131.06Z"/><path d="M489.46,131.06c-.15.25,0,1.56,2.43,1.44C490.79,130.24,489.61,130.8,489.46,131.06Z"/><path d="M490.54,115.09c-.07-.2-.13-.39-.19-.6s-.16-.63-.23-1a.78.78,0,0,0-.66.26C489.34,114,489.38,114.8,490.54,115.09Z"/><path d="M474.38,106.13a3,3,0,0,0-.39-.55,2.11,2.11,0,0,0-.4-.39,1.35,1.35,0,0,0-.86-.31.53.53,0,0,0-.5.86,1.2,1.2,0,0,0,.18.26l.14.13h0a3,3,0,0,0,2.06.43c-.06-.14-.14-.27-.2-.39Z"/><path d="M441.46,190.51a.9.9,0,0,0-.09-.32h0a.83.83,0,0,0-.07-.13h0a.73.73,0,0,0-.17-.18h0a.45.45,0,0,0-.17-.11h0a.3.3,0,0,0-.29,0c-.33.14-.87.72-.26,2.06a5.13,5.13,0,0,0,.41.72,6.37,6.37,0,0,0,.41-.72,2.58,2.58,0,0,0,.27-1.09v-.2Z"/><path d="M475.36,189.71c-.29,0-1.37.72,0,2.81C476.74,190.44,475.66,189.71,475.36,189.71Z"/><path d="M475.36,207c-.29,0-1.37.72,0,2.81C476.74,207.72,475.66,207,475.36,207Z"/><path d="M441.46,207.79a.9.9,0,0,0-.09-.32h0a.83.83,0,0,0-.07-.13h0a1,1,0,0,0-.17-.19h0a.59.59,0,0,0-.17-.1h0a.3.3,0,0,0-.29,0c-.33.14-.87.72-.26,2.06a5.77,5.77,0,0,0,.41.72,7.38,7.38,0,0,0,.41-.72,2.58,2.58,0,0,0,.27-1.09v-.2Z"/><path d="M458.08,198.35c-.29,0-1.37.72,0,2.81C459.46,199.08,458.38,198.35,458.08,198.35Z"/><path d="M492.64,198.35c-.3,0-1.38.72,0,2.81C494,199.08,492.93,198.35,492.64,198.35Z"/><path d="M441.46,173.23a.9.9,0,0,0-.09-.32h0a.83.83,0,0,0-.07-.13h0a.73.73,0,0,0-.17-.18h0a.62.62,0,0,0-.17-.11h0a.3.3,0,0,0-.29,0c-.33.14-.87.72-.26,2.06a5.13,5.13,0,0,0,.41.72,6.37,6.37,0,0,0,.41-.72,2.58,2.58,0,0,0,.27-1.09v-.2Z"/><path d="M475.36,172.43c-.29,0-1.37.72,0,2.82C476.74,173.17,475.66,172.43,475.36,172.43Z"/><path d="M458.08,181.07c-.29,0-1.37.72,0,2.82C459.46,181.8,458.38,181.07,458.08,181.07Z"/><path d="M492.64,181.07c-.3,0-1.38.72,0,2.82C494,181.8,492.93,181.07,492.64,181.07Z"/><path d="M458.08,163.79c-.29,0-1.37.72,0,2.82C459.46,164.53,458.38,163.79,458.08,163.79Z"/><path d="M492.64,163.79c-.3,0-1.38.72,0,2.82C494,164.53,492.93,163.79,492.64,163.79Z"/><path d="M441.58,193c2.49.13,2.58-1.17,2.43-1.44S442.65,190.72,441.58,193Z"/><path d="M476.14,193c2.48.13,2.58-1.17,2.43-1.44S477.21,190.72,476.14,193Z"/><path d="M478,208.56a1.3,1.3,0,0,0-.87.3,3,3,0,0,0-.4.39,3.44,3.44,0,0,0-.39.55v0a2.36,2.36,0,0,0-.2.39,3.06,3.06,0,0,0,2.06-.44h0a.86.86,0,0,0,.14-.13,1,1,0,0,0,.18-.26.72.72,0,0,0,.05-.59A.7.7,0,0,0,478,208.56Z"/><path d="M443.44,208.56a1.32,1.32,0,0,0-.87.3,3.68,3.68,0,0,0-.4.39,5.44,5.44,0,0,0-.39.55v0a3.5,3.5,0,0,0-.2.39,3,3,0,0,0,2.06-.44h0a.86.86,0,0,0,.14-.13.81.81,0,0,0,.18-.26.52.52,0,0,0-.06-.74.52.52,0,0,0-.43-.11Z"/><path d="M458.86,201.6c2.49.13,2.58-1.17,2.43-1.44S459.93,199.36,458.86,201.6Z"/><path d="M493.42,201.6c2.48.13,2.57-1.17,2.43-1.44S494.49,199.36,493.42,201.6Z"/><path d="M441.58,175.68c2.49.13,2.58-1.17,2.43-1.44S442.65,173.44,441.58,175.68Z"/><path d="M476.14,175.68c2.48.13,2.58-1.17,2.43-1.44S477.21,173.44,476.14,175.68Z"/><path d="M458.86,184.32c2.49.13,2.58-1.17,2.43-1.44S459.93,182.08,458.86,184.32Z"/><path d="M493.42,184.32c2.48.13,2.57-1.17,2.43-1.44S494.49,182.08,493.42,184.32Z"/><path d="M458.86,167c2.49.14,2.58-1.17,2.43-1.44S459.93,164.8,458.86,167Z"/><path d="M493.42,167c2.48.14,2.57-1.17,2.43-1.44S494.49,164.8,493.42,167Z"/><path d="M472.18,191.54c-.15.25-.05,1.55,2.43,1.44C473.51,190.72,472.33,191.28,472.18,191.54Z"/><path d="M454.9,200.18c-.14.25,0,1.55,2.43,1.44C456.23,199.36,455.05,199.92,454.9,200.18Z"/><path d="M506.74,191.54c-.16.25-.05,1.55,2.43,1.44C508.07,190.72,506.89,191.28,506.74,191.54Z"/><path d="M489.46,200.18c-.15.25,0,1.55,2.43,1.44C490.79,199.36,489.61,199.92,489.46,200.18Z"/><path d="M444.88,212s18.72,4.81,42.24-13.43,32.64-11,31.68,1.91-21.12,25-29.76,26.41C474.83,229.21,462.16,233.09,444.88,212Z"/><path d="M472.18,174.26c-.15.25-.05,1.55,2.43,1.44C473.51,173.44,472.33,174,472.18,174.26Z"/><path d="M454.9,182.9c-.14.25,0,1.55,2.43,1.44C456.23,182.08,455.05,182.64,454.9,182.9Z"/><path d="M506.74,174.26c-.16.25-.05,1.55,2.43,1.44C508.07,173.44,506.89,174,506.74,174.26Z"/><path d="M489.46,182.9c-.15.25,0,1.55,2.43,1.44C490.79,182.08,489.61,182.64,489.46,182.9Z"/><path d="M454.9,165.62c-.14.25,0,1.56,2.43,1.44C456.23,164.8,455.05,165.36,454.9,165.62Z"/><path d="M489.46,165.62c-.15.25,0,1.56,2.43,1.44C490.79,164.8,489.61,165.36,489.46,165.62Z"/><path d="M478.17,158h0a.9.9,0,0,0,.37-1c-.14-.24-1.17-.72-2.2,1h0a3.55,3.55,0,0,0-.23.43A3,3,0,0,0,478.17,158Z"/><path d="M443.61,158h0a.88.88,0,0,0,.37-1c-.14-.24-1.17-.72-2.2,1h0c-.08.14-.16.28-.23.43A3,3,0,0,0,443.61,158Z"/><path d="M441.46,242.35a.9.9,0,0,0-.09-.32h0a.54.54,0,0,0-.07-.13h0a1,1,0,0,0-.17-.19h0l-.17-.11h0a.37.37,0,0,0-.29,0c-.33.15-.87.72-.26,2.06a5.13,5.13,0,0,0,.41.72,6.37,6.37,0,0,0,.41-.72,2.54,2.54,0,0,0,.27-1.08v-.21Z"/><path d="M475.36,241.55c-.29,0-1.37.72,0,2.81C476.74,242.28,475.66,241.55,475.36,241.55Z"/><path d="M475.36,258.83c-.29,0-1.37.72,0,2.81C476.74,259.56,475.66,258.83,475.36,258.83Z"/><path d="M441.46,259.62a.85.85,0,0,0-.09-.31h0a.54.54,0,0,0-.07-.13h0a1,1,0,0,0-.17-.19h0l-.17-.11h0a.3.3,0,0,0-.29,0c-.33.15-.87.72-.26,2.06a5.13,5.13,0,0,0,.41.72,6.37,6.37,0,0,0,.41-.72,2.57,2.57,0,0,0,.27-1.08v-.21Z"/><path d="M458.08,250.19c-.29,0-1.37.72,0,2.81C459.46,250.92,458.38,250.19,458.08,250.19Z"/><path d="M492.64,250.19c-.3,0-1.38.72,0,2.81C494,250.92,492.93,250.19,492.64,250.19Z"/><path d="M441.46,225.07a.9.9,0,0,0-.09-.32h0a.83.83,0,0,0-.07-.13h0a1,1,0,0,0-.17-.19h0a.59.59,0,0,0-.17-.1h0a.3.3,0,0,0-.29,0c-.33.14-.87.72-.26,2a5.13,5.13,0,0,0,.41.72,6.37,6.37,0,0,0,.41-.72,2.5,2.5,0,0,0,.27-1.08v-.2Z"/><path d="M475.36,224.27c-.29,0-1.37.72,0,2.81C476.74,225,475.66,224.27,475.36,224.27Z"/><path d="M458.08,232.91c-.29,0-1.37.72,0,2.81C459.46,233.64,458.38,232.91,458.08,232.91Z"/><path d="M492.64,232.91c-.3,0-1.38.72,0,2.81C494,233.64,492.93,232.91,492.64,232.91Z"/><path d="M458.08,215.63c-.29,0-1.37.72,0,2.81C459.46,216.36,458.38,215.63,458.08,215.63Z"/><path d="M492.64,215.63c-.3,0-1.38.72,0,2.81C494,216.36,492.93,215.63,492.64,215.63Z"/><path d="M441.58,244.79c2.49.14,2.58-1.16,2.43-1.44S442.65,242.55,441.58,244.79Z"/><path d="M476.14,244.79c2.48.14,2.58-1.16,2.43-1.44S477.21,242.55,476.14,244.79Z"/><path d="M478,260.4h-.16a1.21,1.21,0,0,0-.52.16l-.19.13a3.25,3.25,0,0,0-.79.94h0a3.68,3.68,0,0,0-.23.44,3.05,3.05,0,0,0,2.06-.44h0a.88.88,0,0,0,.37-1A.69.69,0,0,0,478,260.4Z"/><path d="M443.44,260.4h-.15a1.21,1.21,0,0,0-.53.16l-.19.13a3.25,3.25,0,0,0-.79.94h0c-.08.14-.16.29-.23.44a3,3,0,0,0,2.06-.44h0a.87.87,0,0,0,.37-1A.69.69,0,0,0,443.44,260.4Z"/><path d="M458.86,253.43c2.49.14,2.58-1.16,2.43-1.44S459.93,251.19,458.86,253.43Z"/><path d="M493.42,253.43c2.48.14,2.57-1.16,2.43-1.44S494.49,251.19,493.42,253.43Z"/><path d="M441.58,227.51c2.49.14,2.58-1.16,2.43-1.44S442.65,225.28,441.58,227.51Z"/><path d="M476.14,227.51c2.48.14,2.58-1.16,2.43-1.44S477.21,225.28,476.14,227.51Z"/><path d="M458.86,236.15c2.49.14,2.58-1.16,2.43-1.44S459.93,233.92,458.86,236.15Z"/><path d="M493.42,236.15c2.48.14,2.57-1.16,2.43-1.44S494.49,233.92,493.42,236.15Z"/><path d="M458.86,218.88c2.49.13,2.58-1.17,2.43-1.44S459.93,216.64,458.86,218.88Z"/><path d="M493.42,218.88c2.48.13,2.57-1.17,2.43-1.44S494.49,216.64,493.42,218.88Z"/><path d="M472.18,243.38c-.15.25-.05,1.55,2.43,1.44C473.51,242.55,472.33,243.12,472.18,243.38Z"/><path d="M473.59,260.73l-.19-.13a1.21,1.21,0,0,0-.52-.16h-.15a.68.68,0,0,0-.55.26.88.88,0,0,0,.37,1h0a3.05,3.05,0,0,0,2.06.44,3.68,3.68,0,0,0-.23-.44A3.42,3.42,0,0,0,473.59,260.73Z"/><path d="M454.9,252c-.14.26,0,1.56,2.43,1.44C456.23,251.19,455.05,251.76,454.9,252Z"/><path d="M506.74,243.38c-.16.25-.05,1.55,2.43,1.44C508.07,242.55,506.89,243.12,506.74,243.38Z"/><path d="M508.94,261.64a3.25,3.25,0,0,0-.79-.94l-.19-.13a1.23,1.23,0,0,0-.53-.17h-.15a.7.7,0,0,0-.54.26.88.88,0,0,0,.37,1h0a3,3,0,0,0,2.06.43c-.07-.15-.15-.29-.23-.43Z"/><path d="M489.46,252c-.15.26,0,1.56,2.43,1.44C490.79,251.19,489.61,251.76,489.46,252Z"/><path d="M472.18,226.1c-.15.25-.05,1.55,2.43,1.44C473.51,225.28,472.33,225.84,472.18,226.1Z"/><path d="M454.9,234.74c-.14.25,0,1.55,2.43,1.44C456.23,233.92,455.05,234.48,454.9,234.74Z"/><path d="M506.74,226.1c-.16.25-.05,1.55,2.43,1.44C508.07,225.28,506.89,225.84,506.74,226.1Z"/><path d="M489.46,234.74c-.15.25,0,1.55,2.43,1.44C490.79,233.92,489.61,234.48,489.46,234.74Z"/><path d="M454.9,217.46c-.14.25,0,1.55,2.43,1.44C456.23,216.64,455.05,217.2,454.9,217.46Z"/><path d="M489.46,217.46c-.15.25,0,1.55,2.43,1.44C490.79,216.64,489.61,217.2,489.46,217.46Z"/><path d="M474.38,209.8a3.44,3.44,0,0,0-.39-.55,2.46,2.46,0,0,0-.4-.39,1.29,1.29,0,0,0-.86-.3.68.68,0,0,0-.55.26.72.72,0,0,0,.05.59,1,1,0,0,0,.18.26l.14.13h0a3.05,3.05,0,0,0,2.06.44,3.5,3.5,0,0,0-.2-.39Z"/><path d="M508.94,209.8a5.44,5.44,0,0,0-.39-.55,3.68,3.68,0,0,0-.4-.39,1.32,1.32,0,0,0-.87-.3.67.67,0,0,0-.54.26.65.65,0,0,0,.05.59.68.68,0,0,0,.18.26.86.86,0,0,0,.14.13h0a3,3,0,0,0,2.06.44c-.07-.15-.14-.28-.2-.39Z"/><path d="M458.08,267.47c-.29,0-1.37.71,0,2.81C459.46,268.2,458.38,267.47,458.08,267.47Z"/><path d="M492.64,267.47c-.3,0-1.38.71,0,2.81C494,268.2,492.93,267.47,492.64,267.47Z"/><path d="M458.86,270.71c2.49.14,2.58-1.16,2.43-1.44S459.93,268.47,458.86,270.71Z"/><path d="M493.42,270.71c2.48.14,2.57-1.16,2.43-1.44S494.49,268.47,493.42,270.71Z"/><path d="M454.9,269.29c-.14.26,0,1.56,2.43,1.44C456.23,268.47,455.05,269,454.9,269.29Z"/><path d="M489.46,269.29c-.15.26,0,1.56,2.43,1.44C490.79,268.47,489.61,269,489.46,269.29Z"/><path d="M406.24,155.15c-.29,0-1.37.72,0,2.82C407.62,155.89,406.54,155.15,406.24,155.15Z"/><path d="M423.52,146.51c-.29,0-1.37.72,0,2.82C424.9,147.25,423.82,146.51,423.52,146.51Z"/><path d="M424.16,129.9l-1.32.33a3.36,3.36,0,0,0,.68,1.82A2.68,2.68,0,0,0,424.16,129.9Z"/><path d="M407,141.12c2.49.14,2.58-1.17,2.44-1.44S408.09,138.88,407,141.12Z"/><path d="M424.3,149.76c2.48.14,2.58-1.17,2.43-1.44S425.37,147.52,424.3,149.76Z"/><path d="M424.3,132.48c2.48.14,2.58-1.17,2.43-1.44S425.37,130.24,424.3,132.48Z"/><path d="M403.06,157a.9.9,0,0,0,.38,1h0a3,3,0,0,0,2.06.43c-.07-.15-.15-.29-.23-.43C404.24,156.24,403.21,156.74,403.06,157Z"/><path d="M437.62,139.7c-.15.25-.05,1.56,2.43,1.44C439,138.88,437.77,139.44,437.62,139.7Z"/><path d="M439.82,158c-1-1.73-2.06-1.23-2.2-1a.91.91,0,0,0,.37,1h0a3.06,3.06,0,0,0,2.06.43A2.55,2.55,0,0,0,439.82,158Z"/><path d="M420.34,148.34c-.15.25,0,1.56,2.43,1.44C421.67,147.52,420.49,148.08,420.34,148.34Z"/><path d="M420.87,130.81l-.38.12a.47.47,0,0,0-.15.13c-.15.25,0,1.56,2.43,1.44C422.08,131.05,421.35,130.77,420.87,130.81Z"/><path d="M371.69,189.71c-.3,0-1.38.72,0,2.81C373.06,190.44,372,189.71,371.69,189.71Z"/><path d="M389,198.35c-.3,0-1.38.72,0,2.81C390.34,199.08,389.26,198.35,389,198.35Z"/><path d="M406.24,172.43c-.29,0-1.37.72,0,2.82C407.62,173.17,406.54,172.43,406.24,172.43Z"/><path d="M389,181.07c-.3,0-1.38.72,0,2.82C390.34,181.8,389.26,181.07,389,181.07Z"/><path d="M423.52,181.07c-.29,0-1.37.72,0,2.82C424.9,181.8,423.82,181.07,423.52,181.07Z"/><path d="M389,163.79c-.3,0-1.38.72,0,2.82C390.34,164.53,389.26,163.79,389,163.79Z"/><path d="M423.52,163.79c-.29,0-1.37.72,0,2.82C424.9,164.53,423.82,163.79,423.52,163.79Z"/><path d="M372.46,193c2.5.13,2.59-1.17,2.44-1.44S373.54,190.72,372.46,193Z"/><path d="M390.14,200.86c.64-.24,1.27-.5,1.89-.8C391.72,199.85,391,199.72,390.14,200.86Z"/><path d="M374.87,174.26a.63.63,0,0,0-.34-.22c-.45.57-.87,1.11-1.24,1.62C374.94,175.49,375,174.48,374.87,174.26Z"/><path d="M407,175.68c2.49.13,2.58-1.17,2.44-1.44S408.09,173.44,407,175.68Z"/><path d="M389.74,184.32c2.49.13,2.58-1.17,2.44-1.44S390.82,182.08,389.74,184.32Z"/><path d="M424.3,184.32c2.48.13,2.58-1.17,2.43-1.44S425.37,182.08,424.3,184.32Z"/><path d="M389.74,167c2.49.14,2.58-1.17,2.44-1.44S390.82,164.8,389.74,167Z"/><path d="M424.3,167c2.48.14,2.58-1.17,2.43-1.44S425.37,164.8,424.3,167Z"/><path d="M385.78,200.18c-.13.23-.06,1.32,1.83,1.44l.54-.12C387.07,199.39,385.93,199.93,385.78,200.18Z"/><path d="M437.62,191.54c-.15.25-.05,1.55,2.43,1.44C439,190.72,437.77,191.28,437.62,191.54Z"/><path d="M403.06,174.26c-.14.25-.05,1.55,2.44,1.44C404.39,173.44,403.21,174,403.06,174.26Z"/><path d="M385.78,182.9c-.14.25,0,1.55,2.44,1.44C387.12,182.08,385.93,182.64,385.78,182.9Z"/><path d="M437.62,174.26c-.15.25-.05,1.55,2.43,1.44C439,173.44,437.77,174,437.62,174.26Z"/><path d="M385.78,165.62c-.14.25,0,1.56,2.44,1.44C387.12,164.8,385.93,165.36,385.78,165.62Z"/><path d="M420.34,165.62c-.15.25,0,1.56,2.43,1.44C421.67,164.8,420.49,165.36,420.34,165.62Z"/><path d="M409.05,158h0a.9.9,0,0,0,.38-1c-.15-.24-1.18-.72-2.21,1h0c-.08.14-.16.28-.23.43A3,3,0,0,0,409.05,158Z"/><path d="M423.52,250.19c-.29,0-1.37.72,0,2.81C424.9,250.92,423.82,250.19,423.52,250.19Z"/><path d="M424.08,234.63l-.61,1,0,.08A4.5,4.5,0,0,0,424.08,234.63Z"/><path d="M424.3,253.43c2.48.14,2.58-1.16,2.43-1.44S425.37,251.19,424.3,253.43Z"/><path d="M424.3,236.15c2.48.14,2.58-1.16,2.43-1.44S425.37,233.92,424.3,236.15Z"/><path d="M437.62,243.38c-.15.25-.05,1.55,2.43,1.44C439,242.55,437.77,243.12,437.62,243.38Z"/><path d="M439.82,261.64a3.25,3.25,0,0,0-.79-.94l-.19-.13a1.23,1.23,0,0,0-.52-.17h-.15a.74.74,0,0,0-.55.26.91.91,0,0,0,.37,1h0a3.06,3.06,0,0,0,2.06.43,2.55,2.55,0,0,0-.23-.43Z"/><path d="M420.34,252c-.15.26,0,1.56,2.43,1.44C421.67,251.19,420.49,251.76,420.34,252Z"/><path d="M437.62,226.1c-.15.25-.05,1.55,2.43,1.44C439,225.28,437.77,225.84,437.62,226.1Z"/><path d="M439.82,209.8a3.44,3.44,0,0,0-.39-.55,3,3,0,0,0-.4-.39,1.29,1.29,0,0,0-.86-.3.71.71,0,0,0-.55.26.72.72,0,0,0,.05.59,1,1,0,0,0,.18.26l.14.13h0a3.06,3.06,0,0,0,2.06.44,2.36,2.36,0,0,0-.2-.39Z"/><path d="M423.52,267.47c-.29,0-1.37.71,0,2.81C424.9,268.2,423.82,267.47,423.52,267.47Z"/><path d="M424.3,270.71c2.48.14,2.58-1.16,2.43-1.44S425.37,268.47,424.3,270.71Z"/><path d="M420.34,269.29c-.15.26,0,1.56,2.43,1.44C421.67,268.47,420.49,269,420.34,269.29Z"/><path d="M370,191.65a13.64,13.64,0,0,0,.5,1.31h.45A3.93,3.93,0,0,0,370,191.65Z"/></g></g><path class="cls-7" d="M538.21,271a83,83,0,0,0-6.48-35.36c-7.77-17.68-9.52-18.95-9.52-24.13s5.2-11.22,6.07-22.86a130.16,130.16,0,0,0,.43-17.28s18.54,29.32,31.48,31,20.69-10.35,15.95-26.74-25.44-29.74-33.63-40.53-26.74-10.8-36.22-10.8-14.23-3.45-16-9.91S488.61,95,488.61,95s-11.21,6.9-30.18-.86c0,0,1.72,23.71-.44,27.16s-5.15,7-18.09,7-23.71,2.59-29.75,8.64-31,30.18-37.51,39.67-3,19.84,4.74,23.72,15.52.42,21.13-4.75S421.8,174,421.8,174s0,9.92,4.74,24.15,8.64,12.5,5.17,22.85-10.35,13.37-12.5,26.73A127,127,0,0,0,417.48,271"/><path class="cls-8" d="M421.8,174a53.65,53.65,0,0,1,2.84-13.68"/><path class="cls-7" d="M528.69,171.4a52.4,52.4,0,0,0-3.93-10.35"/><line class="cls-7" x1="465.36" y1="219.19" x2="492.52" y2="210.49"/><path class="cls-7" d="M477.66,212a88.08,88.08,0,0,1,19.72-5.38"/><path class="cls-9" d="M470.08,157.17c21.52,4.15,29.82-16.47,32.7-32.95-7.16-.79-10.93-4.12-12.43-9.73-1.72-6.48-1.72-19.44-1.72-19.44s-11.22,6.9-30.19-.86c0,0,1.73,23.71-.43,27.16-1.5,2.4-3.43,4.81-8.83,6C449,134.79,450.48,153.39,470.08,157.17Z"/><g class="cls-10"><path class="cls-11" d="M489.88,112.36c-1.25-6.81-1.25-17.28-1.25-17.28s-11.22,6.9-30.19-.87c0,0,.72,9.92.65,17.86C475.42,117.74,484.86,115.34,489.88,112.36Z"/></g><path class="cls-7" d="M470.08,157.17c21.52,4.15,29.82-16.47,32.7-32.95-7.16-.79-10.93-4.12-12.43-9.73-1.72-6.48-1.72-19.44-1.72-19.44s-11.22,6.9-30.19-.86c0,0,1.73,23.71-.43,27.16-1.5,2.4-3.43,4.81-8.83,6C449,134.79,450.48,153.39,470.08,157.17Z"/><circle class="cls-12" cx="502.61" cy="81.47" r="5.34"/><circle class="cls-12" cx="445.55" cy="81.47" r="5.34"/><path class="cls-13" d="M502.12,63.26S504.79,55,508,57.92,507,72,504.79,74.68s-4.37,2.67-4.12-1S502.12,63.26,502.12,63.26Z"/><path class="cls-9" d="M446.9,71.57s.72,19.29,14.92,28.75,24.74,4,30.57-4,9.46-16,9.46-27.66,1.44-16.74-2.54-24-17.84-10.92-17.84-10.92a218.48,218.48,0,0,1-18.56,20.39C452,64.65,446.9,71.57,446.9,71.57Z"/><g class="cls-14"><path class="cls-11" d="M481.47,33.72a218.48,218.48,0,0,1-18.56,20.39c-10.92,10.54-16,17.46-16,17.46a44.24,44.24,0,0,0,2.21,11c19.18-14.67,29.66-41,32.44-48.86Z"/></g><path class="cls-7" d="M446.9,71.57s.72,19.29,14.92,28.75,24.74,4,30.57-4,9.46-16,9.46-27.66,1.44-16.74-2.54-24-17.84-10.92-17.84-10.92a218.48,218.48,0,0,1-18.56,20.39C452,64.65,446.9,71.57,446.9,71.57Z"/><line class="cls-7" x1="460.33" y1="69.3" x2="468.5" y2="70.07"/><path class="cls-7" d="M485.09,69.05s5.37-1,7.92,0"/><path class="cls-15" d="M467.4,65.57c0,1.94-.87,3.52-1.95,3.52s-1.93-1.58-1.93-3.52.86-3.52,1.93-3.52S467.4,63.62,467.4,65.57Z"/><path class="cls-7" d="M471.77,77.86a7.09,7.09,0,0,0,8.5-.72"/><path class="cls-7" d="M474,86.09s7.52,3.16,11.89-7"/><path class="cls-16" d="M483.67,65.69s4.61-3.16,9.23-1.22"/><path class="cls-16" d="M482.21,57.71a10,10,0,0,1,12.14-1"/><path class="cls-16" d="M471.29,54.52s-4.37-4.37-10.45-.24"/><path class="cls-4" d="M372.64,176.58s-7.76,8.64-7.76,17.67,5.17,17.28,19.44,30.18,27.59,22.42,33.2,25.45,11.21-.87,11.21-.87,9.27,9.27,10.34,7.12-3.23-5.4-4.09-6.69a18.07,18.07,0,0,0-2.59-2.8s4.53.64,6.26,2.16,4.52,4.1,5.82,3.88,1.29-1.29-.65-3.88a23.15,23.15,0,0,0-5.6-5.17c-1.3-.86-5.61-3.24-5.61-3.24s6.25-.43,8.41.87,8,5.18,8.41,3.45.43-2.8-1.73-4.75-6.48-4.32-9.05-4.74a26.73,26.73,0,0,1-5.18-1.51s5-1.72,6.68-1.72,8.64,3.44,10.57,3,.86-2.16-.64-3.24-8.2-3.67-11-3.88-18.53,5.18-20.47,5.18-6.9-6.9-12.07-16.17-7.12-23.72-18.11-28.67"/><g class="cls-17"><g class="cls-6"><path d="M371.69,192.52c1.37-2.08.29-2.81,0-2.81C372,189.71,373.06,190.44,371.69,192.52Z"/><path d="M371.69,207c.29,0,1.37.72,0,2.81C373.06,207.72,372,207,371.69,207Z"/><path d="M389,198.35c-.3,0-1.38.72,0,2.81C390.34,199.08,389.26,198.35,389,198.35Z"/><path d="M374.87,191.54c-.15-.26-1.33-.82-2.43,1.44C374.93,193.09,375,191.79,374.87,191.54Z"/><path d="M374.62,209.67a.68.68,0,0,0,.18-.26.52.52,0,0,0-.06-.74.52.52,0,0,0-.43-.11,1.32,1.32,0,0,0-.87.3,3.68,3.68,0,0,0-.4.39,5.44,5.44,0,0,0-.39.55h1.83A.86.86,0,0,0,374.62,209.67Z"/><path d="M392.15,200.18c-.15-.26-1.33-.82-2.44,1.44C392.21,201.73,392.29,200.43,392.15,200.18Z"/><path d="M388.22,201.6c-1.1-2.24-2.29-1.68-2.44-1.44S385.73,201.73,388.22,201.6Z"/><path d="M371.69,189.71v2.81C373.06,190.44,372,189.71,371.69,189.71Z"/><path d="M371.69,207v2.81C373.06,207.72,372,207,371.69,207Z"/><path d="M406.24,241.55a.76.76,0,0,0-.56.48l1.21.89C407.07,241.93,406.46,241.55,406.24,241.55Z"/><path d="M423.52,250.19a.86.86,0,0,0-.66.8q.64-.06,1.29-.18A.82.82,0,0,0,423.52,250.19Z"/><path d="M406.24,224.27c-.29,0-1.37.72,0,2.81C407.62,225,406.54,224.27,406.24,224.27Z"/><path d="M423.52,235.72c1.38-2.08.3-2.81,0-2.81S422.14,233.64,423.52,235.72Z"/><path d="M389,218.44c1.37-2.08.29-2.81,0-2.81S387.58,216.36,389,218.44Z"/><path d="M409.43,243.38c-.12-.2-.81-.57-1.61.2.39.29.78.57,1.16.83A.91.91,0,0,0,409.43,243.38Z"/><path d="M407,227.51c2.49.14,2.58-1.16,2.44-1.44S408.09,225.28,407,227.51Z"/><path d="M424.3,236.15c2.48.14,2.58-1.16,2.43-1.44S425.37,233.92,424.3,236.15Z"/><path d="M389.74,218.88c2.49.13,2.58-1.17,2.44-1.44S390.82,216.64,389.74,218.88Z"/><path d="M439.8,244.8c-.62-.49-1.19-.88-1.62-1.18l-.5-.32-.06.08C437.48,243.62,437.57,244.84,439.8,244.8Z"/><path d="M405.5,227.51c-1.11-2.23-2.29-1.67-2.44-1.44S403,227.65,405.5,227.51Z"/><path d="M420.34,234.74c-.15.25,0,1.55,2.43,1.44C421.67,233.92,420.49,234.48,420.34,234.74Z"/><path d="M385.78,217.46c-.14.25,0,1.55,2.44,1.44C387.12,216.64,385.93,217.2,385.78,217.46Z"/><path d="M374.49,209.8h-1.82v0a3.44,3.44,0,0,0-.21.39A3,3,0,0,0,374.49,209.8Z"/><path d="M371.69,189.71c-.3,0-1.38.72,0,2.81Z"/><path d="M371.69,209.8V207C371.39,207,370.3,207.72,371.69,209.8Z"/><path d="M370.94,193c-1.1-2.24-2.28-1.68-2.44-1.44S368.45,193.09,370.94,193Z"/><path d="M370.3,209.25a3,3,0,0,0-.4-.39l0,0a10.67,10.67,0,0,0,.72,1h.16A4.53,4.53,0,0,0,370.3,209.25Z"/><path d="M370.74,209.85a0,0,0,0,1,0,0h-.16l.31.44H371C370.87,210.09,370.8,210,370.74,209.85Z"/></g></g><path class="cls-7" d="M372.64,176.58s-7.76,8.64-7.76,17.67,5.17,17.28,19.44,30.18,27.59,22.42,33.2,25.45,11.21-.87,11.21-.87,9.27,9.27,10.34,7.12-3.23-5.4-4.09-6.69a18.07,18.07,0,0,0-2.59-2.8s4.53.64,6.26,2.16,4.52,4.1,5.82,3.88,1.29-1.29-.65-3.88a23.15,23.15,0,0,0-5.6-5.17c-1.3-.86-5.61-3.24-5.61-3.24s6.25-.43,8.41.87,8,5.18,8.41,3.45.43-2.8-1.73-4.75-6.48-4.32-9.05-4.74a26.73,26.73,0,0,1-5.18-1.51s5-1.72,6.68-1.72,8.64,3.44,10.57,3,.86-2.16-.64-3.24-8.2-3.67-11-3.88-18.53,5.18-20.47,5.18-6.9-6.9-12.07-16.17-7.12-23.72-18.11-28.67"/><path class="cls-13" d="M450,231.76c-1.51-1.07-8.19-3.66-11-3.88s-18.54,5.18-20.48,5.18-6.89-6.9-12.07-16.17c-2.88-5.15-4.75-11.9-7.74-17.72-15.84-2.16-22.63,7.1-25.77,13.76a115,115,0,0,0,11.31,11.52c14.22,13,27.58,22.42,33.19,25.44s11.21-.86,11.21-.86,9.28,9.26,10.35,7.11-3.23-5.39-4.1-6.68a18,18,0,0,0-2.58-2.8s4.53.64,6.25,2.16,4.52,4.09,5.82,3.88,1.3-1.3-.65-3.88a22.81,22.81,0,0,0-5.6-5.18c-1.29-.86-5.61-3.23-5.61-3.23s6.25-.43,8.41.86,8,5.18,8.41,3.45.43-2.8-1.73-4.74-6.48-4.32-9.05-4.75a26.61,26.61,0,0,1-5.17-1.5s5-1.73,6.68-1.73,8.64,3.45,10.56,3S451.54,232.84,450,231.76Z"/><path class="cls-4" d="M543.64,184.67c-1.8-4.11-.26-13.11,1.54-26s3.6-26,3.6-32.9,1.15-16.56-1.11-19.67-10.49-11.51-11.11-15.42,4.94-9.87,4.94-9.87,1.64-3.09,3.08-1.44.82,3.7,0,6.58-1.64,5.14-1.64,5.14,7.19,2.26,9,1,1.68-8.27,1.55-11.72c-.27-6.72-3-3.85-4.82-.67-.9,1.53-6.17.62-3.09-3.29s5.94-7.36,8.82-4.27,4.94,9.05,4.94,9.05,2.06-9.8,3.93-15.56,5.22-8,6.43-7.63,1.08,2.41-.13,5.22-3.89,10.59-4.56,13.13-.8,5.5.54,5.23,6-8.44,7.37-11.93,3.35-6.69,5.62-8.17,4.16.4,3.22,2.82a122.36,122.36,0,0,1-6.32,12.72,55.34,55.34,0,0,0-3.75,8.31,93.79,93.79,0,0,1,7-6.7c3.22-2.68,6.7-3.21,7.77-2.28s.14,1.08-2.54,3.22-6.68,4.7-9.89,9.92a49.28,49.28,0,0,0-5.76,12.32,41.43,41.43,0,0,1-3.89,8.18s2.52,20.4,6.87,31.63,12.06,27.64,9.71,39.37-6.86,17.75-13.23,19.59a12.26,12.26,0,0,1-10.88-2"/><g class="cls-18"><g class="cls-6"><path d="M579,68.76a.78.78,0,0,1,.58.49h0A.76.76,0,0,0,579,68.76Z"/><path d="M579,68.76v1.68l.58-1.19A.78.78,0,0,0,579,68.76Z"/><path d="M579,175.25c1.38-2.08.3-2.82,0-2.82C579.33,172.43,580.41,173.17,579,175.25Z"/><path d="M581.39,175.49a13.88,13.88,0,0,0-.07-1.44c-.44.12-1,.54-1.54,1.63A3.82,3.82,0,0,0,581.39,175.49Z"/><path d="M579,172.43v2.82C580.41,173.17,579.33,172.43,579,172.43Z"/><path d="M544.48,86c-.26,0-1.05.52-.49,1.91.18-.58.38-1.22.57-1.9Z"/><path d="M561.75,97.49c1.38-2.08.3-2.81,0-2.81S560.37,95.41,561.75,97.49Z"/><path d="M578.73,71.05l.3-.61V68.76C578.76,68.76,577.85,69.38,578.73,71.05Z"/><path d="M561.75,77.4c-.29,0-1.37.72,0,2.81C563.13,78.13,562.05,77.4,561.75,77.4Z"/><path d="M547.61,105.74a.74.74,0,0,0,0-.6.78.78,0,0,0-.55-.26,1.27,1.27,0,0,0-.39.06c.29.36.56.69.77,1A.66.66,0,0,0,547.61,105.74Z"/><path d="M564.94,96.5c-.15-.25-1.33-.82-2.44,1.44C565,98.06,565.08,96.76,564.94,96.5Z"/><path d="M564.58,80.2a11.81,11.81,0,0,1,0-1.19c-.46-.14-1.3,0-2.1,1.63A3,3,0,0,0,564.58,80.2Z"/><path d="M565,62a11.26,11.26,0,0,0-.56,1A1,1,0,0,0,565,62Z"/><path d="M541.29,87.86c-.14.25,0,1.5,2.28,1.44l.06-.18C542.56,87.09,541.44,87.61,541.29,87.86Z"/><path d="M558.57,96.5c-.15.26-.05,1.56,2.44,1.44C559.9,95.68,558.72,96.25,558.57,96.5Z"/><path d="M575.85,70.59c-.14.25-.05,1.54,2.41,1.44h0C577.18,69.77,576,70.33,575.85,70.59Z"/><path d="M561,80.64a3.5,3.5,0,0,0-1.17-1.44c-.12.54-.22,1-.29,1.34A4,4,0,0,0,561,80.64Z"/><path d="M559,80.26c-.11-.3-.26-.65-.42-1.05h0A.9.9,0,0,0,559,80.26Z"/><path d="M561.75,149.33c1.38-2.08.3-2.82,0-2.82S560.37,147.25,561.75,149.33Z"/><path d="M561.75,129.23c-.29,0-1.37.72,0,2.82C563.13,130,562.05,129.23,561.75,129.23Z"/><path d="M561.75,112c-.29,0-1.37.72,0,2.82C563.13,112.69,562.05,112,561.75,112Z"/><path d="M547.69,139.78a3.62,3.62,0,0,1-.06.46A.89.89,0,0,0,547.69,139.78Z"/><path d="M547.66,157c-.15-.24-1.18-.72-2.2,1h1.82A.9.9,0,0,0,547.66,157Z"/><path d="M562.53,149.76c2.49.14,2.58-1.17,2.44-1.44S563.61,147.52,562.53,149.76Z"/><path d="M564.94,131.06c-.15-.26-1.33-.82-2.44,1.44C565,132.62,565.08,131.31,564.94,131.06Z"/><path d="M562.53,115.2c1.83.1,2.36-.57,2.46-1l-.07-.43C564.65,113.47,563.54,113.09,562.53,115.2Z"/><path d="M577.23,157c-.72-.49-1.28-.19-1.38,0a.9.9,0,0,0,.38,1h1.34Z"/><path d="M558.57,148.34c-.15.25-.05,1.56,2.44,1.44C559.9,147.52,558.72,148.08,558.57,148.34Z"/><path d="M558.57,131.06c-.15.25-.05,1.56,2.44,1.44C559.9,130.24,558.72,130.8,558.57,131.06Z"/><path d="M558.57,113.78c-.15.26-.05,1.56,2.44,1.44C559.9,113,558.72,113.52,558.57,113.78Z"/><path d="M561.75,198.35c-.28,0-1.25.66-.2,2.49l.36.07C563,199,562,198.35,561.75,198.35Z"/><path d="M544.48,175.25c1.37-2.08.29-2.82,0-2.82S543.09,173.17,544.48,175.25Z"/><path d="M579,172.43c-.29,0-1.37.72,0,2.82Z"/><path d="M561.75,183.89c1.38-2.09.3-2.82,0-2.82S560.37,181.8,561.75,183.89Z"/><path d="M561.75,163.79c-.29,0-1.37.72,0,2.82C563.13,164.53,562.05,163.79,561.75,163.79Z"/><path d="M564.94,200.18c-.14-.24-1.13-.72-2.16.87a11.8,11.8,0,0,0,1.78.09A.88.88,0,0,0,564.94,200.18Z"/><path d="M545.25,175.68c2.49.13,2.58-1.17,2.44-1.44S546.33,173.44,545.25,175.68Z"/><path d="M562.53,184.32c2.49.13,2.58-1.17,2.44-1.44S563.61,182.08,562.53,184.32Z"/><path d="M564.94,165.62c-.15-.26-1.33-.82-2.44,1.44C565,167.18,565.08,165.87,564.94,165.62Z"/><path d="M575.85,191.54c-.11.19-.08,1,1.07,1.31.2-.35.39-.72.57-1.06C576.68,191,576,191.34,575.85,191.54Z"/><path d="M559,199.94c.41.19.83.37,1.26.52A1.35,1.35,0,0,0,559,199.94Z"/><path d="M543.73,175.68a4.22,4.22,0,0,0-.64-1c0,.34-.06.67-.08,1A5.77,5.77,0,0,0,543.73,175.68Z"/><path d="M578.29,175.68c-1.11-2.24-2.29-1.68-2.44-1.44S575.8,175.81,578.29,175.68Z"/><path d="M558.57,182.9c-.15.25-.05,1.55,2.44,1.44C559.9,182.08,558.72,182.64,558.57,182.9Z"/><path d="M558.57,165.62c-.15.25-.05,1.56,2.44,1.44C559.9,164.8,558.72,165.36,558.57,165.62Z"/><path d="M545.46,158q-.12.19-.24.42h0a3,3,0,0,0,2.06-.43h-1.82Z"/><path d="M577.57,158h-1.36a2.62,2.62,0,0,0,1.49.43Z"/></g></g><path class="cls-7" d="M543.64,184.67c-1.8-4.11-.26-13.11,1.54-26s3.6-26,3.6-32.9,1.15-16.56-1.11-19.67-10.49-11.51-11.11-15.42,4.94-9.87,4.94-9.87,1.64-3.09,3.08-1.44.82,3.7,0,6.58-1.64,5.14-1.64,5.14,7.19,2.26,9,1,1.68-8.27,1.55-11.72c-.27-6.72-3-3.85-4.82-.67-.9,1.53-6.17.62-3.09-3.29s5.94-7.36,8.82-4.27,4.94,9.05,4.94,9.05,2.06-9.8,3.93-15.56,5.22-8,6.43-7.63,1.08,2.41-.13,5.22-3.89,10.59-4.56,13.13-.8,5.5.54,5.23,6-8.44,7.37-11.93,3.35-6.69,5.62-8.17,4.16.4,3.22,2.82a122.36,122.36,0,0,1-6.32,12.72,55.34,55.34,0,0,0-3.75,8.31,93.79,93.79,0,0,1,7-6.7c3.22-2.68,6.7-3.21,7.77-2.28s.14,1.08-2.54,3.22-6.68,4.7-9.89,9.92a49.28,49.28,0,0,0-5.76,12.32,41.43,41.43,0,0,1-3.89,8.18s2.52,20.4,6.87,31.63,12.06,27.64,9.71,39.37-6.86,17.75-13.23,19.59a12.26,12.26,0,0,1-10.88-2"/><path class="cls-13" d="M574.05,89.56c3.22-5.23,7.24-7.78,9.92-9.92s3.6-2.28,2.54-3.22S582,76,578.75,78.7a91.88,91.88,0,0,0-7,6.7,55.58,55.58,0,0,1,3.71-8.31,120.25,120.25,0,0,0,6.3-12.72c.94-2.42-.93-4.32-3.22-2.82s-4.28,4.69-5.62,8.17-6,11.67-7.37,11.93S564.37,79,565,76.42s3.35-10.31,4.56-13.13,1.33-4.82.13-5.22-4.56,1.87-6.43,7.63-3.94,15.56-3.94,15.56-2.05-6-4.93-9.05-5.76.36-8.82,4.27,2.16,4.82,3.08,3.29c1.87-3.18,4.56-6,4.83.67.13,3.45.29,10.48-1.56,11.72s-9.05-1-9.05-1,.82-2.26,1.65-5.14,1.44-4.94,0-6.58-3.09,1.44-3.09,1.44-5.55,6-4.93,9.87,8.84,12.34,11.1,15.42,1.12,12.73,1.12,19.67-1.8,20.05-3.6,32.9a4.29,4.29,0,0,1-.07.5c2.84,3,8.64,7.27,18.44,6.94A19.54,19.54,0,0,0,577.89,159c-2.09-6.21-4.71-12.24-6.65-17.28-4.36-11.22-6.87-31.62-6.87-31.62a42,42,0,0,0,3.89-8.18A49.17,49.17,0,0,1,574.05,89.56Z"/><path class="cls-7" d="M554.34,109.25s-1.2-5.09.54-8.3a9.09,9.09,0,0,1,4.28-4.16"/></g></svg>