<svg id="Layer_1" data-name="Layer 1" xmlns="http://www.w3.org/2000/svg" viewBox="0 0 375 121.18"><defs><style>.cls-1{fill:#fff;}.cls-2{fill:#42c6c2;}</style></defs><g id="e"><path class="cls-1" d="M108.19,92.44c13.47,0,23.55-9.92,23.55-23.06s-10.08-23-23.55-23-23.55,9.84-23.55,23S94.72,92.44,108.19,92.44Zm0-11.13c-6.78,0-11.62-4.84-11.62-11.93s4.84-11.94,11.62-11.94,11.61,4.92,11.61,11.94S115,81.31,108.19,81.31Z"/></g><g id="f"><path class="cls-1" d="M172.15,32V50a20.69,20.69,0,0,0-11.94-3.63c-13.23,0-22.91,9.84-22.91,23.06S147,92.52,160.21,92.52a20.86,20.86,0,0,0,13.63-4.92l1.37,3.64h8.71V32Zm-11,49.44a11.6,11.6,0,0,1-11.86-11.94,11.86,11.86,0,1,1,23.72,0A11.6,11.6,0,0,1,161.18,81.39Z"/></g><g id="g"><path class="cls-1" d="M195.29,91.15h11.78V32H195.29Z"/></g><g id="h"><path class="cls-1" d="M240.87,34.69h-21.7V91.15h12.18V73.57h9.52c11.37,0,19.92-8.31,19.92-19.44S252.16,34.69,240.87,34.69Zm-.57,27.59h-9V46.06h9a7.78,7.78,0,0,1,8.15,8.07A7.84,7.84,0,0,1,240.3,62.28Z"/></g><g id="i"><path class="cls-1" d="M304,47.6l-1.21,4.11a21.55,21.55,0,0,0-14.36-5.32c-13.07,0-22.83,9.84-22.83,23s9.76,23.06,22.83,23.06a20.8,20.8,0,0,0,14.11-5.24l1.05,4h9.2V47.6Zm-14.6,33.71a11.59,11.59,0,0,1-11.86-11.93,11.86,11.86,0,1,1,23.71,0A11.55,11.55,0,0,1,289.42,81.31Z"/></g><g id="j"><path class="cls-1" d="M354.26,47.6,343.37,74.46,331.76,47.6H318.93L337.4,87.85l-.16.32c-2.66,6.61-4.11,8.15-9.84,8.15h-4v10.56h4.84c9.76,0,14.35-4.43,19.6-16.29l18.95-43Z"/></g><path class="cls-2" d="M19.8,27.6S30.09,22.09,39,22.09v24s13.4-3.14,20.1-2.66V26.88s15.08-6.22,19.15-4.79V90.32H59.29V64.46l12-1.54S57.14,57.52,15,73.32L6.39,57.12,19.8,50.34Z"/><path class="cls-2" d="M19.8,90.32H39.19V69.45S22.67,74.59,19.8,77.24Z"/></svg>