<svg id="Layer_1" data-name="Layer 1" xmlns="http://www.w3.org/2000/svg" viewBox="0 0 375 121.18"><defs><style>.cls-1{fill:#42c6c2;}</style></defs><g id="e"><path d="M107.83,94.55c13.47,0,23.55-9.92,23.55-23.07s-10.08-23-23.55-23-23.55,9.84-23.55,23S94.36,94.55,107.83,94.55Zm0-11.13c-6.78,0-11.62-4.84-11.62-11.94s4.84-11.94,11.62-11.94,11.61,4.92,11.61,11.94S114.6,83.42,107.83,83.42Z"/></g><g id="f"><path d="M171.79,34.05V52.12a20.69,20.69,0,0,0-11.94-3.63c-13.23,0-22.91,9.84-22.91,23.07s9.68,23.07,22.91,23.07a20.91,20.91,0,0,0,13.63-4.92l1.37,3.63h8.71V34.05Zm-11,49.44A11.59,11.59,0,0,1,149,71.56a11.86,11.86,0,1,1,23.72,0A11.6,11.6,0,0,1,160.82,83.49Z"/></g><g id="g"><path d="M194.93,93.26h11.78V34.05H194.93Z"/></g><g id="h"><path d="M240.51,36.8h-21.7V93.26H231V75.67h9.52c11.37,0,19.92-8.3,19.92-19.44S251.79,36.8,240.51,36.8Zm-.57,27.58H231V48.17h8.95a7.77,7.77,0,0,1,8.15,8.06A7.84,7.84,0,0,1,239.94,64.38Z"/></g><g id="i"><path d="M303.66,49.7l-1.22,4.11a21.56,21.56,0,0,0-14.35-5.32c-13.07,0-22.83,9.84-22.83,23S275,94.55,288.09,94.55A20.81,20.81,0,0,0,302.2,89.3l1.05,4h9.2V49.7Zm-14.6,33.72A11.6,11.6,0,0,1,277.2,71.48a11.86,11.86,0,1,1,23.71,0A11.55,11.55,0,0,1,289.06,83.42Z"/></g><g id="j"><path d="M353.9,49.7,343,76.56,331.4,49.7H318.57L337,90l-.16.32c-2.66,6.62-4.11,8.15-9.84,8.15h-4V109h4.84c9.76,0,14.35-4.44,19.6-16.3l18.95-43Z"/></g><path class="cls-1" d="M19.44,29.7s10.29-5.5,19.15-5.5v24S52,45,58.69,45.5V29s15.08-6.22,19.15-4.78V92.42H58.93V66.56L70.9,65S56.78,59.62,14.65,75.42L6,59.22l13.41-6.78Z"/><path class="cls-1" d="M19.44,92.42H38.82V71.56S22.31,76.7,19.44,79.34Z"/></svg>